<svg version="1.1" xmlns="http://www.w3.org/2000/svg" viewBox="0 0 1156.5877498544753 682.5" width="2313.1754997089506" height="1365">
  <!-- svg-source:excalidraw -->
  
  <defs>
    <style>
      @font-face {
        font-family: "Virgil";
        src: url("https://excalidraw.com/Virgil.woff2");
      }
      @font-face {
        font-family: "Cascadia";
        src: url("https://excalidraw.com/Cascadia.woff2");
      }
    </style>
  </defs>
  <g stroke-linecap="round" transform="translate(271.58774985447525 63) rotate(0 167.5 151.5)"><path d="M1.93 1.44 C74.55 6.93, 150.51 5.21, 337.26 0.06 M-0.48 1.23 C87.43 -0.93, 175.57 -0.39, 335.38 0.55 M335.27 2.47 C338.93 58.34, 333.59 120.14, 337.74 300.38 M335.86 -0.59 C331.14 81.6, 332.6 161.45, 335.58 302.88 M332.61 301.66 C216.88 307.86, 100.91 303.45, -1.48 305.17 M334 302.29 C207.32 299.61, 77.47 301.03, -1.34 302.86 M-0.35 302.04 C-1.4 221.3, -1.49 140.54, 1.49 -0.46 M-1.16 302.56 C-1.11 204.52, -1.2 109.23, 0.93 -0.86" stroke="#000000" stroke-width="4" fill="none"></path></g><g transform="translate(373.58774985447525 10) rotate(0 59 18)"><text x="0" y="25" font-family="Virgil, Segoe UI Emoji" font-size="28px" fill="#000000" text-anchor="start" style="white-space: pre;" direction="ltr">Frontend</text></g><g stroke-linecap="round" transform="translate(712.5877498544753 61) rotate(0 217 153.5)"><path d="M-1.42 0.2 C172.28 0.69, 341.04 3.08, 434.92 0.68 M0.9 0.68 C146.44 -2.78, 294.54 -1.57, 434.52 -0.97 M433.15 -1.55 C435.43 73.71, 440.18 148.39, 434.58 307.96 M433.91 -1.06 C433.38 61.11, 432.73 122.96, 433.13 307.05 M435.11 305.98 C280.02 307.34, 131.1 306.53, 1.68 308.6 M434.04 306.3 C275.88 310.14, 117.49 309.5, -0.48 306.68 M-1.96 307.23 C-3.03 240.11, -6.15 172.85, -0.91 1.81 M-0.99 307.09 C3.44 223.58, 2.38 139.85, -0.49 -1.05" stroke="#000000" stroke-width="4" fill="none"></path></g><g stroke-linecap="round" transform="translate(272.58774985447525 498) rotate(0 435 59.5)"><path d="M-0.45 -0.26 C314.16 -6.34, 624.82 -7.54, 868.8 1.54 M0.06 0.01 C246.94 6.74, 494.41 6.18, 869.92 -0.15 M867.67 3.55 C871.08 28.18, 868.07 52.06, 869.55 121.41 M870.06 0.67 C869.92 43.38, 869.07 85.97, 869.1 120.42 M868.62 118.75 C572.09 120.13, 271.36 119.22, 0.42 118.74 M869.64 118.92 C642.33 118.43, 414.46 118.23, 0.56 119.47 M-2.02 121.88 C1.29 83.52, -1.78 44.54, 3.17 1.93 M1.53 118.73 C-2.55 87.84, -0.65 59.16, 1.45 0.55" stroke="#000000" stroke-width="4" fill="none"></path></g><g stroke-linecap="round" transform="translate(330.58774985447525 286) rotate(0 107.5 32.5)"><path d="M128.4 -0.12 C142.72 0.46, 158.62 4.62, 170.25 7.01 C181.88 9.4, 191.01 10.49, 198.18 14.22 C205.34 17.96, 211.37 25.02, 213.22 29.43 C215.06 33.83, 213.6 36.75, 209.23 40.63 C204.86 44.52, 196.58 49.46, 186.97 52.73 C177.36 56, 164.48 58.36, 151.58 60.26 C138.69 62.16, 123.95 63.46, 109.59 64.12 C95.24 64.79, 78.74 65.6, 65.45 64.23 C52.17 62.87, 40.09 59.59, 29.87 55.95 C19.65 52.31, 9.01 46.62, 4.14 42.39 C-0.74 38.17, -0.65 35.07, 0.61 30.59 C1.87 26.11, 4.59 19.27, 11.71 15.5 C18.83 11.72, 31.14 10.09, 43.34 7.96 C55.55 5.84, 64.55 2.88, 84.93 2.74 C105.31 2.6, 147.66 5.18, 165.63 7.12 C183.61 9.06, 193.84 14.02, 192.79 14.4 M95.7 0.47 C109.09 -0.47, 125.38 -0.93, 139.63 0.22 C153.87 1.37, 170.48 3.82, 181.18 7.38 C191.87 10.93, 197.87 17.2, 203.79 21.56 C209.71 25.92, 216.96 29.47, 216.7 33.53 C216.44 37.6, 208.9 41.84, 202.24 45.97 C195.58 50.09, 187.65 55.36, 176.71 58.28 C165.78 61.2, 150.33 62.71, 136.62 63.48 C122.91 64.25, 108.21 63.01, 94.45 62.91 C80.7 62.81, 66.16 64.51, 54.07 62.88 C41.99 61.26, 30.89 57.1, 21.96 53.17 C13.02 49.24, 3.22 43.71, 0.48 39.3 C-2.26 34.9, 2.52 31.46, 5.51 26.73 C8.5 22, 10.55 14.81, 18.42 10.9 C26.28 6.99, 39.93 5.52, 52.69 3.28 C65.46 1.03, 87.36 -2.07, 95.03 -2.58 C102.7 -3.09, 97.79 -0.81, 98.71 0.22" stroke="#364fc7" stroke-width="4" fill="none"></path></g><g transform="translate(392.58774985447525 306) rotate(0 35.5 18)"><text x="0" y="25" font-family="Virgil, Segoe UI Emoji" font-size="28px" fill="#364fc7" text-anchor="start" style="white-space: pre;" direction="ltr">/login</text></g><g stroke-linecap="round" transform="translate(326.08774985447525 97.5) rotate(0 107.5 32.5)"><path d="M30.23 8.08 C38.39 4.32, 53.1 2.91, 66.67 1.25 C80.23 -0.42, 97.06 -2.18, 111.63 -1.91 C126.21 -1.65, 141.34 0.46, 154.11 2.85 C166.88 5.24, 178.56 8.77, 188.26 12.43 C197.96 16.09, 207.8 20.94, 212.31 24.83 C216.81 28.72, 217.46 31.34, 215.28 35.79 C213.1 40.23, 206.95 47.9, 199.23 51.51 C191.51 55.12, 181.3 55.52, 168.97 57.44 C156.63 59.37, 139.83 62.21, 125.24 63.04 C110.65 63.87, 95.64 63.11, 81.42 62.41 C67.2 61.72, 51.42 61.06, 39.93 58.87 C28.43 56.68, 19.04 53.04, 12.46 49.27 C5.89 45.51, 1.23 41.09, 0.48 36.25 C-0.28 31.42, -0.13 25.14, 7.92 20.25 C15.97 15.36, 38.64 9.87, 48.78 6.89 C58.92 3.92, 68.05 1.9, 68.76 2.41 M162.25 5.76 C174.78 6.73, 185.68 8.83, 194.51 11.83 C203.34 14.82, 212.1 19.43, 215.25 23.71 C218.41 27.99, 216.93 32.87, 213.44 37.48 C209.94 42.1, 203.89 47.19, 194.29 51.4 C184.69 55.61, 168.4 60.54, 155.82 62.74 C143.25 64.94, 132.74 64.96, 118.85 64.6 C104.96 64.25, 86.72 62.14, 72.49 60.63 C58.26 59.12, 44 58.06, 33.49 55.53 C22.98 53.01, 15.32 49.35, 9.44 45.48 C3.55 41.62, -2.19 36.64, -1.82 32.36 C-1.45 28.08, 4.66 23.66, 11.66 19.83 C18.66 15.99, 29.24 12.28, 40.2 9.38 C51.16 6.47, 63.85 3.59, 77.39 2.4 C90.94 1.22, 106.87 1.91, 121.48 2.28 C136.1 2.65, 158.08 4.51, 165.09 4.62 C172.11 4.73, 165.19 2.06, 163.58 2.95" stroke="#364fc7" stroke-width="4" fill="none"></path></g><g stroke-linecap="round" transform="translate(327.08774985447525 191.5) rotate(0 107.5 32.5)"><path d="M170.03 6.43 C181.7 8.63, 193.11 13.74, 200.21 17.59 C207.32 21.45, 211.2 25.53, 212.64 29.56 C214.08 33.59, 213.09 37.32, 208.86 41.76 C204.63 46.21, 196.85 52.58, 187.24 56.23 C177.63 59.87, 164.92 62.13, 151.18 63.64 C137.44 65.15, 119.3 65.4, 104.81 65.28 C90.31 65.15, 77.59 65.04, 64.23 62.9 C50.86 60.75, 34.78 55.99, 24.63 52.42 C14.48 48.85, 7.59 45.76, 3.34 41.49 C-0.92 37.22, -2.98 31.14, -0.89 26.8 C1.2 22.46, 7.9 18.9, 15.88 15.45 C23.86 12, 34.97 8.3, 47 6.1 C59.03 3.89, 74.2 3, 88.06 2.23 C101.92 1.46, 114.74 0.71, 130.15 1.48 C145.55 2.26, 171.57 5.51, 180.49 6.86 C189.4 8.21, 184.77 8.77, 183.64 9.59 M79.19 -0.36 C91.26 -1.4, 106.77 1.26, 120.55 2.38 C134.34 3.51, 149.63 4.15, 161.9 6.41 C174.18 8.66, 185.78 12.99, 194.22 15.92 C202.66 18.86, 209.35 19.42, 212.54 24 C215.74 28.58, 216.87 38.48, 213.4 43.39 C209.92 48.3, 201.4 50.5, 191.69 53.48 C181.98 56.45, 168.08 59.12, 155.14 61.24 C142.21 63.36, 128.13 66.2, 114.1 66.18 C100.06 66.17, 84.41 62.68, 70.94 61.15 C57.47 59.61, 43.6 59.33, 33.28 56.99 C22.96 54.64, 14.28 51.3, 9.01 47.08 C3.74 42.86, 1.16 36.51, 1.67 31.67 C2.19 26.84, 5.6 21.89, 12.1 18.1 C18.6 14.31, 29.68 11.59, 40.68 8.95 C51.67 6.31, 72.09 3.88, 78.05 2.25 C84 0.63, 75.49 -0.8, 76.41 -0.77" stroke="#364fc7" stroke-width="4" fill="none"></path></g><g transform="translate(332.08774985447525 206) rotate(0 102.5 18)"><text x="102.5" y="25" font-family="Virgil, Segoe UI Emoji" font-size="28px" fill="#364fc7" text-anchor="middle" style="white-space: pre;" direction="ltr">/</text></g><g transform="translate(331.08774985447525 112) rotate(0 102.5 18)"><text x="102.5" y="25" font-family="Virgil, Segoe UI Emoji" font-size="28px" fill="#364fc7" text-anchor="middle" style="white-space: pre;" direction="ltr">/register</text></g><g transform="translate(863.5877498544753 17.5) rotate(0 56 18)"><text x="0" y="25" font-family="Virgil, Segoe UI Emoji" font-size="28px" fill="#000000" text-anchor="start" style="white-space: pre;" direction="ltr">Backend</text></g><g transform="translate(595.5877498544753 632.5) rotate(0 82 18)"><text x="0" y="25" font-family="Virgil, Segoe UI Emoji" font-size="28px" fill="#000000" text-anchor="start" style="white-space: pre;" direction="ltr">Jupyter Hub</text></g><g stroke-linecap="round"><g transform="translate(542.0546390701547 228.61192358387063) rotate(0 86.73890347634142 153.84197220810975)"><path d="M-0.3 -1.1 C29.62 50.12, 147.75 256.64, 177.39 308.63 M-3.91 -4.17 C25.73 47.35, 144.69 260.14, 174.54 311.85" stroke="#2b8a3e" stroke-width="4" fill="none"></path></g><g transform="translate(542.0546390701547 228.61192358387063) rotate(0 86.73890347634142 153.84197220810975)"><path d="M150.13 290.76 C155.89 295.33, 164.13 299.68, 172.58 310.7 M151.85 292.17 C162.34 300.82, 170.96 305.8, 172.56 311.15" stroke="#2b8a3e" stroke-width="4" fill="none"></path></g><g transform="translate(542.0546390701547 228.61192358387063) rotate(0 86.73890347634142 153.84197220810975)"><path d="M167.98 280.64 C169.86 287.43, 174.12 294.03, 172.58 310.7 M169.7 282.05 C173.35 294.79, 174.99 303.72, 172.56 311.15" stroke="#2b8a3e" stroke-width="4" fill="none"></path></g></g><g transform="translate(677.5877498544753 543.5) rotate(0 55 18)"><text x="0" y="25" font-family="Virgil, Segoe UI Emoji" font-size="28px" fill="#364fc7" text-anchor="start" style="white-space: pre;" direction="ltr">/jupyter</text></g><g stroke-linecap="round" transform="translate(14.587749854475248 128) rotate(0 79 76.5)"><path d="M40.65 10.91 C49.5 5.67, 63.85 3.18, 74.44 2.14 C85.04 1.1, 94.18 1.43, 104.23 4.65 C114.27 7.87, 126.6 14.52, 134.7 21.43 C142.81 28.35, 149.12 36.84, 152.86 46.14 C156.61 55.45, 157.56 66.87, 157.18 77.24 C156.79 87.61, 155.27 98.76, 150.55 108.38 C145.82 118, 137.09 128.24, 128.84 134.97 C120.6 141.7, 111.02 145.89, 101.06 148.75 C91.1 151.61, 79.39 153.54, 69.08 152.13 C58.77 150.72, 48.46 145.83, 39.19 140.29 C29.93 134.76, 19.81 127.39, 13.5 118.9 C7.19 110.42, 3.1 99.55, 1.35 89.38 C-0.41 79.21, 0.28 68.1, 2.99 57.89 C5.7 47.67, 9.49 36.95, 17.61 28.09 C25.73 19.23, 43.75 9.04, 51.71 4.7 C59.67 0.36, 64.56 1.25, 65.35 2.07 M37.28 8.58 C45.47 2.46, 58.34 3.04, 69.37 2.03 C80.4 1.01, 93.38 -0.58, 103.43 2.51 C113.49 5.6, 121.83 13.98, 129.69 20.55 C137.55 27.12, 145.53 32.56, 150.62 41.94 C155.71 51.32, 159.82 65.99, 160.25 76.84 C160.67 87.68, 157.68 97.26, 153.17 107.02 C148.67 116.79, 141.47 128, 133.22 135.44 C124.97 142.88, 114.35 149.04, 103.68 151.68 C93 154.32, 80.24 152.76, 69.16 151.29 C58.08 149.82, 46.45 147.3, 37.22 142.87 C28 138.43, 19.22 133.33, 13.81 124.69 C8.39 116.05, 7.13 101.46, 4.73 91.02 C2.33 80.57, -2.28 72.28, -0.58 62.02 C1.11 51.76, 8.43 38.07, 14.9 29.46 C21.37 20.85, 33.89 13.58, 38.26 10.33 C42.63 7.09, 40.05 9.3, 41.11 9.99" stroke="#000000" stroke-width="4" fill="none"></path></g><g transform="translate(19.58774985447525 186.5) rotate(0 74 18)"><text x="74" y="25" font-family="Virgil, Segoe UI Emoji" font-size="28px" fill="#000000" text-anchor="middle" style="white-space: pre;" direction="ltr">User</text></g><g stroke-linecap="round"><g transform="translate(181.58774985447525 210) rotate(0 70.24204291924835 3.5537550367415065)"><path d="M-0.02 1.39 C23.09 2.62, 117.41 5.1, 140.5 5.72" stroke="#c92a2a" stroke-width="4.5" fill="none" stroke-dasharray="8 12"></path></g><g transform="translate(181.58774985447525 210) rotate(0 70.24204291924835 3.5537550367415065)"><path d="M114.03 17.36 C125.03 11.05, 134.57 9.6, 139.33 4.29" stroke="#c92a2a" stroke-width="4.5" fill="none"></path></g><g transform="translate(181.58774985447525 210) rotate(0 70.24204291924835 3.5537550367415065)"><path d="M114.58 -3.15 C125.13 -1.95, 134.47 4.1, 139.33 4.29" stroke="#c92a2a" stroke-width="4.5" fill="none"></path></g></g><g stroke-linecap="round"><g transform="translate(37.58774985447525 337) rotate(0 34.28243639096618 -1.6101042918622568)"><path d="M-0.66 -1.64 C11.03 -2.06, 57.07 -1.73, 69.22 -1.38" stroke="#c92a2a" stroke-width="4.5" fill="none" stroke-dasharray="8 12"></path></g><g transform="translate(37.58774985447525 337) rotate(0 34.28243639096618 -1.6101042918622568)"><path d="M38.53 4.47 C49.28 6.31, 59.44 3.59, 69.82 0.8" stroke="#c92a2a" stroke-width="4.5" fill="none"></path></g><g transform="translate(37.58774985447525 337) rotate(0 34.28243639096618 -1.6101042918622568)"><path d="M38.85 -16.05 C49.68 -8.7, 59.75 -5.92, 69.82 0.8" stroke="#c92a2a" stroke-width="4.5" fill="none"></path></g></g><g transform="translate(139.58774985447525 316.5) rotate(0 28.5 20)"><text x="0" y="30" font-family="Virgil, Segoe UI Emoji" font-size="28px" fill="#c92a2a" text-anchor="start" style="white-space: pre;" direction="ltr">访问</text></g><g stroke-linecap="round"><g transform="translate(12.587749854475248 383) rotate(0 47.38721011281015 1.2363567665863116)"><path d="M0.56 -1.51 C16.42 -1.62, 81.24 -1.38, 97.36 -0.89 M-2.59 3.85 C12.65 4.25, 78.5 3.9, 94.78 2.8" stroke="#e67700" stroke-width="4" fill="none"></path></g><g transform="translate(12.587749854475248 383) rotate(0 47.38721011281015 1.2363567665863116)"><path d="M64.77 13.02 C77.61 8.59, 91.46 6.97, 96.68 6.18 M68.59 15.25 C78.1 8.27, 89.75 4.21, 94.22 1.45" stroke="#e67700" stroke-width="4" fill="none"></path></g><g transform="translate(12.587749854475248 383) rotate(0 47.38721011281015 1.2363567665863116)"><path d="M64.13 -7.49 C77.19 -4.18, 91.27 1.95, 96.68 6.18 M67.95 -5.26 C77.67 -4.31, 89.57 -0.44, 94.22 1.45" stroke="#e67700" stroke-width="4" fill="none"></path></g></g><g transform="translate(134.58774985447525 364.5) rotate(0 28.5 20)"><text x="0" y="30" font-family="Virgil, Segoe UI Emoji" font-size="28px" fill="#e67700" text-anchor="start" style="white-space: pre;" direction="ltr">跳转</text></g><g stroke-linecap="round"><g transform="translate(31.58774985447525 427) rotate(0 36.77303768232464 2.014769820421918)"><path d="M-0.38 1.68 C12.17 1.99, 65.08 3.81, 77.58 4.2 M-4.03 0.13 C8.09 0.81, 63.52 0.02, 76.2 -0.17" stroke="#2b8a3e" stroke-width="4" fill="none"></path></g><g transform="translate(31.58774985447525 427) rotate(0 36.77303768232464 2.014769820421918)"><path d="M50.55 12.73 C60.34 4.5, 70.7 3.74, 74.21 -0.47 M48.97 8.64 C60.97 7.72, 70.24 2.53, 75.75 0.49" stroke="#2b8a3e" stroke-width="4" fill="none"></path></g><g transform="translate(31.58774985447525 427) rotate(0 36.77303768232464 2.014769820421918)"><path d="M50.28 -7.79 C60.51 -8.22, 70.98 -1.18, 74.21 -0.47 M48.7 -11.88 C61.07 -4.78, 70.44 -1.94, 75.75 0.49" stroke="#2b8a3e" stroke-width="4" fill="none"></path></g></g><g transform="translate(146.58774985447525 407.5) rotate(0 28.5 20)"><text x="0" y="30" font-family="Virgil, Segoe UI Emoji" font-size="28px" fill="#2b8a3e" text-anchor="start" style="white-space: pre;" direction="ltr">链接</text></g><g stroke-linecap="round"><g transform="translate(335.58774985447525 301) rotate(0 -19.397596644163144 -75.35992792010306)"><path d="M-0.04 -1.57 C-6.19 -14.55, -39.96 -50.01, -39.51 -75.49 C-39.06 -100.97, -3.61 -140.81, 2.69 -154.47 M-3.5 3.75 C-9.74 -8.91, -42.37 -54.42, -41.48 -80.22 C-40.6 -106.03, -4.68 -138.42, 1.8 -151.07" stroke="#2b8a3e" stroke-width="4" fill="none"></path></g><g transform="translate(335.58774985447525 301) rotate(0 -19.397596644163144 -75.35992792010306)"><path d="M-9.19 -121.68 C-4.9 -125.9, -3.06 -138.13, -1.69 -147.83 M-5.44 -121.36 C-2.8 -130.26, -2.24 -134.72, 1.73 -152.79" stroke="#2b8a3e" stroke-width="4" fill="none"></path></g><g transform="translate(335.58774985447525 301) rotate(0 -19.397596644163144 -75.35992792010306)"><path d="M-25.59 -134.01 C-17.7 -135.68, -12.47 -145.36, -1.69 -147.83 M-21.84 -133.7 C-15.31 -139.75, -10.8 -141.23, 1.73 -152.79" stroke="#2b8a3e" stroke-width="4" fill="none"></path></g></g><g stroke-linecap="round" transform="translate(731.5877498544753 75) rotate(0 140 34.499999999999986)"><path d="M34.18 11.14 C43.38 7.75, 60.16 4.5, 74.82 2.84 C89.49 1.18, 105.81 1.35, 122.17 1.2 C138.52 1.04, 156.63 1.13, 172.95 1.91 C189.28 2.69, 205.92 3.39, 220.1 5.88 C234.28 8.37, 248.74 13.31, 258.04 16.84 C267.33 20.37, 272.47 23.34, 275.89 27.08 C279.32 30.82, 281.32 35.07, 278.58 39.26 C275.84 43.45, 267.75 48.29, 259.46 52.23 C251.16 56.16, 241.74 60.24, 228.8 62.87 C215.86 65.49, 198.21 66.78, 181.81 67.97 C165.41 69.16, 146.92 70.18, 130.41 70 C113.9 69.82, 98.03 68.95, 82.75 66.88 C67.46 64.8, 50.94 60.76, 38.68 57.57 C26.43 54.37, 15.65 51.45, 9.24 47.7 C2.82 43.94, 0.4 39.16, 0.19 35.02 C-0.02 30.88, -2.49 27.44, 7.96 22.87 C18.42 18.29, 48.51 10.68, 62.93 7.57 C77.35 4.46, 93.71 4.1, 94.5 4.21 M166.45 -0.82 C183.12 -0.07, 202.22 4.05, 216.7 6.79 C231.18 9.54, 243.54 12.5, 253.33 15.64 C263.11 18.79, 271.3 22.01, 275.41 25.66 C279.53 29.3, 280.41 32.88, 278.02 37.49 C275.63 42.11, 268.77 49.64, 261.05 53.33 C253.34 57.02, 243.78 57.86, 231.74 59.63 C219.71 61.41, 204.72 61.96, 188.83 63.97 C172.93 65.99, 153.61 70.93, 136.39 71.73 C119.17 72.54, 100.95 71.07, 85.51 68.83 C70.07 66.58, 56.23 61.62, 43.77 58.26 C31.3 54.9, 18.42 52.26, 10.74 48.68 C3.06 45.1, -1.43 40.61, -2.31 36.79 C-3.2 32.96, -0.38 29.63, 5.42 25.73 C11.22 21.84, 22.44 16.91, 32.49 13.44 C42.55 9.97, 51.31 7.05, 65.77 4.94 C80.23 2.82, 101.67 1.02, 119.26 0.73 C136.86 0.43, 163.24 3.16, 171.31 3.19 C179.39 3.22, 168.58 0.81, 167.72 0.93" stroke="#364fc7" stroke-width="4" fill="none"></path></g><g transform="translate(750.5877498544753 90.5) rotate(0 121.5 18)"><text x="0" y="25" font-family="Virgil, Segoe UI Emoji" font-size="28px" fill="#364fc7" text-anchor="start" style="white-space: pre;" direction="ltr">/api/user-register</text></g><g stroke-linecap="round"><g transform="translate(544.5877498544753 131) rotate(0 91.7640711148083 -8.915667136758557)"><path d="M1.3 0.32 C32.58 -2.82, 154.81 -15.11, 184.97 -18.15 M-1.44 -1.98 C29.89 -4.89, 153.55 -13.38, 183.8 -15.69" stroke="#862e9c" stroke-width="4" fill="none"></path></g><g transform="translate(544.5877498544753 131) rotate(0 91.7640711148083 -8.915667136758557)"><path d="M156.88 -0.6 C158.86 -7.18, 164.75 -8.85, 187.31 -14.74 M157.69 -2.69 C162.73 -8.54, 173.97 -10.27, 183.01 -16.44" stroke="#862e9c" stroke-width="4" fill="none"></path></g><g transform="translate(544.5877498544753 131) rotate(0 91.7640711148083 -8.915667136758557)"><path d="M155.4 -21.07 C157.77 -23.5, 163.97 -21.02, 187.31 -14.74 M156.21 -23.16 C161.8 -22.81, 173.49 -18.35, 183.01 -16.44" stroke="#862e9c" stroke-width="4" fill="none"></path></g></g><g stroke-linecap="round"><g transform="translate(24.58774985447525 476) rotate(0 42.12783406570553 -3.2218650422585142)"><path d="M1.61 -0.98 C15.81 -1.26, 71.54 -0.89, 85.21 -1.14 M-0.95 -3.98 C12.89 -5.1, 69.41 -5.96, 83.08 -5.15" stroke="#862e9c" stroke-width="4" fill="none"></path></g><g transform="translate(24.58774985447525 476) rotate(0 42.12783406570553 -3.2218650422585142)"><path d="M53.35 5 C65.9 -0.54, 72.51 -2.48, 84.88 -6.03 M55.14 5.79 C63.45 3.05, 71.51 -0.55, 83.85 -4.51" stroke="#862e9c" stroke-width="4" fill="none"></path></g><g transform="translate(24.58774985447525 476) rotate(0 42.12783406570553 -3.2218650422585142)"><path d="M53.65 -15.52 C66.18 -14.88, 72.7 -10.63, 84.88 -6.03 M55.44 -14.73 C63.97 -11.71, 71.94 -9.55, 83.85 -4.51" stroke="#862e9c" stroke-width="4" fill="none"></path></g></g><g transform="translate(130.58774985447525 452.5) rotate(0 68 20)"><text x="0" y="30" font-family="Virgil, Segoe UI Emoji" font-size="28px" fill="#862e9c" text-anchor="start" style="white-space: pre;" direction="ltr">Post 请求</text></g><g stroke-linecap="round" transform="translate(733.5877498544753 161.5) rotate(0 140 34.5)"><path d="M62.84 4.08 C75.1 0.97, 94.56 -0.26, 110.66 -0.95 C126.77 -1.65, 142.76 -1.21, 159.48 -0.09 C176.19 1.03, 196.31 3.56, 210.96 5.78 C225.62 8, 237.07 10.52, 247.42 13.21 C257.76 15.91, 267.77 18.04, 273.03 21.93 C278.28 25.83, 279.76 32.15, 278.95 36.58 C278.13 41.02, 275.32 45.01, 268.13 48.56 C260.94 52.11, 248.22 54.81, 235.81 57.88 C223.4 60.96, 208.7 64.88, 193.67 67.02 C178.65 69.16, 162.01 70.92, 145.66 70.71 C129.31 70.5, 111.42 67.42, 95.58 65.73 C79.73 64.04, 63.74 63.36, 50.57 60.57 C37.4 57.78, 24.69 52.49, 16.56 48.98 C8.43 45.48, 3.78 43.53, 1.78 39.55 C-0.21 35.57, 0.64 29.01, 4.61 25.1 C8.58 21.19, 13.13 19.64, 25.6 16.1 C38.07 12.56, 67.71 6.1, 79.41 3.88 C91.12 1.65, 95.29 2.21, 95.82 2.76 M88.96 2.87 C102.53 0.39, 119.53 -1.99, 135.73 -2.06 C151.93 -2.13, 169.93 0.29, 186.19 2.44 C202.45 4.59, 220.12 8.28, 233.28 10.81 C246.44 13.35, 257.3 14.4, 265.14 17.66 C272.98 20.92, 279.04 25.66, 280.33 30.38 C281.61 35.1, 277.43 41.41, 272.85 45.97 C268.27 50.53, 262.82 55.05, 252.85 57.76 C242.88 60.47, 227.39 60.9, 213.01 62.23 C198.62 63.57, 182.21 64.92, 166.54 65.79 C150.86 66.67, 135.1 67.5, 118.95 67.47 C102.8 67.44, 84.23 67.12, 69.63 65.59 C55.02 64.07, 41.64 61.9, 31.31 58.34 C20.99 54.77, 12.72 48.19, 7.68 44.21 C2.63 40.24, -0.08 38.93, 1.04 34.48 C2.16 30.02, 7.62 22.06, 14.41 17.48 C21.19 12.9, 29.36 9.82, 41.76 7.02 C54.15 4.21, 80.66 1.61, 88.78 0.64 C96.89 -0.32, 89.36 0.47, 90.44 1.22" stroke="#364fc7" stroke-width="4" fill="none"></path></g><g transform="translate(752.5877498544753 177) rotate(0 97 18)"><text x="0" y="25" font-family="Virgil, Segoe UI Emoji" font-size="28px" fill="#364fc7" text-anchor="start" style="white-space: pre;" direction="ltr">/api/user-login</text></g><g stroke-linecap="round"><g transform="translate(540.5877498544753 307) rotate(0 94.5395433701575 -55.30197912827134)"><path d="M-1.71 2.26 C7.77 -12.36, 23.11 -69.49, 55.19 -88.68 C87.27 -107.87, 168.36 -109.29, 190.79 -112.86 M2.56 1.02 C11.84 -14.35, 22 -74.34, 53.05 -92.97 C84.1 -111.6, 166.1 -108.43, 188.86 -110.76" stroke="#862e9c" stroke-width="4" fill="none"></path></g><g transform="translate(540.5877498544753 307) rotate(0 94.5395433701575 -55.30197912827134)"><path d="M164.33 -99.1 C169.73 -102.08, 171.84 -106.3, 190.15 -108.95 M160.2 -97.54 C172.9 -105.84, 182.9 -107.76, 186.86 -109.05" stroke="#862e9c" stroke-width="4" fill="none"></path></g><g transform="translate(540.5877498544753 307) rotate(0 94.5395433701575 -55.30197912827134)"><path d="M163.51 -119.61 C168.96 -117.65, 171.27 -116.95, 190.15 -108.95 M159.37 -118.04 C172.33 -118.57, 182.65 -112.71, 186.86 -109.05" stroke="#862e9c" stroke-width="4" fill="none"></path></g></g><g stroke-linecap="round" transform="translate(654.5877498544753 530) rotate(0 74.5 32)"><path d="M31.21 5.95 C39.66 2.2, 54.04 -1.1, 65.48 -1.66 C76.91 -2.22, 88.89 0.44, 99.82 2.62 C110.74 4.79, 123.11 7.78, 131.03 11.4 C138.95 15.02, 144.59 19.41, 147.34 24.33 C150.1 29.25, 150.18 36.03, 147.55 40.91 C144.93 45.79, 139.16 50.25, 131.58 53.59 C124.01 56.93, 113.15 59.08, 102.11 60.94 C91.06 62.79, 77.16 65.09, 65.33 64.72 C53.49 64.36, 40.54 61.98, 31.1 58.77 C21.65 55.55, 14.09 49.94, 8.66 45.43 C3.23 40.92, -1.5 36.44, -1.47 31.7 C-1.43 26.96, -1.71 22.38, 8.87 16.98 C19.45 11.59, 47.95 1.64, 62.03 -0.67 C76.11 -2.97, 93.15 2.27, 93.37 3.15 M87.74 0.57 C99.02 0.93, 111.79 4.63, 121.11 7.28 C130.42 9.93, 139.16 11.74, 143.63 16.49 C148.09 21.23, 148.41 30.68, 147.92 35.75 C147.42 40.83, 146.4 43.32, 140.66 46.93 C134.93 50.55, 123.77 55.03, 113.49 57.44 C103.2 59.85, 90.24 60.85, 78.96 61.39 C67.68 61.93, 56.02 62.65, 45.81 60.69 C35.61 58.72, 24.69 53.86, 17.74 49.6 C10.78 45.35, 6.88 39.92, 4.08 35.14 C1.29 30.36, -1.86 25.29, 0.97 20.93 C3.81 16.56, 12.53 12.24, 21.1 8.94 C29.67 5.64, 40.98 2.43, 52.4 1.13 C63.82 -0.16, 84.07 1.57, 89.63 1.18 C95.19 0.79, 86.31 -1.59, 85.78 -1.22" stroke="#364fc7" stroke-width="4" fill="none"></path></g><g transform="translate(856.0877498544753 547.5) rotate(0 56.5 18)"><text x="0" y="25" font-family="Virgil, Segoe UI Emoji" font-size="28px" fill="#364fc7" text-anchor="start" style="white-space: pre;" direction="ltr">Hub API</text></g><g stroke-linecap="round" transform="translate(831.0877498544753 531) rotate(0 74.5 32)"><path d="M123.1 9.08 C132.52 11.72, 140.63 15.91, 145.13 20.2 C149.63 24.5, 151.16 29.96, 150.09 34.86 C149.01 39.76, 145.16 45.45, 138.7 49.6 C132.23 53.75, 121.82 57.07, 111.32 59.75 C100.81 62.44, 87.25 65.81, 75.68 65.73 C64.12 65.65, 52.35 62.01, 41.92 59.25 C31.49 56.49, 20.12 53.23, 13.09 49.17 C6.06 45.12, 1.45 39.84, -0.25 34.91 C-1.94 29.98, -1.41 24.26, 2.92 19.59 C7.25 14.92, 17.21 9.83, 25.72 6.87 C34.23 3.91, 43.33 2.99, 53.96 1.82 C64.59 0.64, 76.34 -1.8, 89.52 -0.17 C102.69 1.46, 125.19 9.23, 133 11.6 C140.82 13.97, 137.81 13.95, 136.43 14.05 M103.49 2.46 C114.54 4.06, 123.96 10.66, 131.16 13.99 C138.37 17.33, 143.97 18.03, 146.72 22.45 C149.46 26.88, 149.99 35.23, 147.61 40.55 C145.23 45.86, 139.82 50.99, 132.42 54.33 C125.02 57.67, 114.1 59.29, 103.24 60.57 C92.37 61.85, 79.18 62.71, 67.23 62.02 C55.28 61.33, 41.11 58.56, 31.54 56.42 C21.98 54.28, 15.26 53.64, 9.84 49.17 C4.43 44.69, -1.06 34.63, -0.94 29.57 C-0.83 24.52, 5.36 23.13, 10.54 18.82 C15.71 14.52, 20.37 6.45, 30.1 3.76 C39.82 1.07, 57.06 3.42, 68.91 2.66 C80.75 1.9, 96.22 -0.44, 101.17 -0.79 C106.13 -1.14, 98.96 -0.51, 98.64 0.57" stroke="#364fc7" stroke-width="4" fill="none"></path></g><g stroke-linecap="round" transform="translate(734.5877498544753 237.5) rotate(0 98.5 34.5)"><path d="M121.82 2.49 C135.53 2.84, 151.28 5.08, 162.62 7.88 C173.96 10.69, 184.31 14.64, 189.85 19.32 C195.4 24, 196.56 30.93, 195.91 35.95 C195.25 40.98, 192.15 45.08, 185.92 49.46 C179.69 53.85, 169.88 58.89, 158.52 62.26 C147.15 65.64, 132.1 69.05, 117.73 69.71 C103.36 70.36, 86.18 67.97, 72.3 66.19 C58.41 64.41, 44.73 61.71, 34.42 59 C24.12 56.29, 16.24 54.33, 10.47 49.94 C4.7 45.56, -0.15 38.02, -0.21 32.68 C-0.28 27.33, 3.8 22.27, 10.07 17.86 C16.33 13.44, 25.9 8.93, 37.38 6.19 C48.86 3.45, 54.97 0.04, 78.96 1.44 C102.95 2.84, 162.42 8.31, 181.32 14.59 C200.22 20.87, 193.49 38.87, 192.38 39.12 M45.55 8.62 C56.67 5.56, 73.23 0.36, 87.59 -0.41 C101.95 -1.18, 118.71 2.02, 131.7 4 C144.7 5.97, 155.26 8.31, 165.56 11.44 C175.87 14.56, 188.03 18.17, 193.53 22.75 C199.04 27.32, 200.56 34.35, 198.59 38.9 C196.62 43.46, 189.39 46.43, 181.7 50.09 C174.01 53.74, 163.91 57.98, 152.46 60.83 C141.01 63.68, 127.55 65.7, 113.02 67.16 C98.5 68.63, 79.18 70.48, 65.33 69.61 C51.48 68.74, 40.03 66.26, 29.92 61.95 C19.82 57.64, 9.38 48.64, 4.71 43.73 C0.03 38.83, 0.42 37.15, 1.87 32.53 C3.32 27.9, 6.5 20.44, 13.42 15.98 C20.33 11.52, 37.81 7.18, 43.35 5.78 C48.89 4.38, 45.93 6.82, 46.65 7.56" stroke="#364fc7" stroke-width="4" fill="none"></path></g><g transform="translate(758.5877498544753 256) rotate(0 70.5 18)"><text x="0" y="25" font-family="Virgil, Segoe UI Emoji" font-size="28px" fill="#364fc7" text-anchor="start" style="white-space: pre;" direction="ltr">/api/token</text></g><g transform="translate(291.08774985447525 541.5) rotate(0 167.5 18)"><text x="0" y="25" font-family="Virgil, Segoe UI Emoji" font-size="28px" fill="#364fc7" text-anchor="start" style="white-space: pre;" direction="ltr">/jupyter/oauth_callback</text></g><g stroke-linecap="round" transform="translate(274.08774985447525 524) rotate(0 182.5 35.5)"><path d="M298.63 8.15 C315.28 9.57, 326.61 11.48, 336.6 14.83 C346.58 18.18, 353.81 24.26, 358.55 28.25 C363.29 32.23, 366.79 34.87, 365.06 38.76 C363.32 42.65, 356.36 47.96, 348.12 51.59 C339.88 55.22, 329.06 58.18, 315.63 60.55 C302.2 62.93, 284.83 63.98, 267.52 65.85 C250.21 67.72, 231.66 71.34, 211.79 71.78 C191.91 72.22, 168.17 69.52, 148.27 68.49 C128.37 67.45, 109.3 67.36, 92.38 65.57 C75.45 63.79, 59.98 60.28, 46.74 57.76 C33.5 55.25, 20.84 53.87, 12.93 50.47 C5.03 47.06, 0.63 41.45, -0.7 37.33 C-2.03 33.2, -0.49 29.57, 4.95 25.72 C10.39 21.87, 20.47 17.49, 31.95 14.24 C43.43 10.98, 58.45 8.05, 73.81 6.2 C89.18 4.35, 105.52 4.46, 124.12 3.15 C142.72 1.84, 165.06 -1.52, 185.4 -1.64 C205.73 -1.77, 219.96 -1.03, 246.13 2.4 C272.29 5.83, 323.58 14.39, 342.39 18.95 C361.21 23.5, 361.59 29.67, 358.99 29.74 M226.78 2.64 C245.16 3.6, 261.83 5.32, 278.83 6.76 C295.84 8.21, 315.69 8.04, 328.83 11.31 C341.97 14.58, 351.4 22.38, 357.67 26.39 C363.94 30.41, 366.86 31.52, 366.45 35.41 C366.04 39.3, 362.03 46.4, 355.2 49.73 C348.36 53.06, 337.55 52.38, 325.45 55.38 C313.35 58.39, 299.17 64.95, 282.57 67.78 C265.97 70.61, 244.88 71.44, 225.86 72.36 C206.85 73.28, 187.92 73.68, 168.48 73.29 C149.04 72.9, 127.59 71.59, 109.22 70.05 C90.85 68.5, 72.98 66.85, 58.26 64.01 C43.55 61.16, 29.72 56.36, 20.93 52.98 C12.14 49.59, 8.78 47.81, 5.51 43.68 C2.24 39.55, -1.58 32.07, 1.29 28.2 C4.16 24.32, 13.29 23.72, 22.73 20.43 C32.17 17.15, 43.83 11.38, 57.91 8.51 C71.99 5.64, 88.84 4.22, 107.21 3.2 C125.58 2.19, 148.27 2.34, 168.14 2.42 C188 2.49, 216.59 3.96, 226.41 3.65 C236.22 3.34, 227.49 0.12, 227 0.56" stroke="#364fc7" stroke-width="4" fill="none"></path></g><g stroke-linecap="round"><g transform="translate(662.8385326324756 542.5811192038467) rotate(0 -102.83347319799361 -92.38242844729672)"><path d="M0.74 2.62 C-30.36 -10.87, -149.57 -48.09, -183.95 -79.76 C-218.34 -111.43, -202.18 -169.55, -205.58 -187.38 M-2.31 1.57 C-33.89 -12.82, -152.53 -52.65, -185.49 -83.78 C-218.44 -114.92, -196.87 -168.42, -200.02 -185.25" stroke="#e67700" stroke-width="4" fill="none"></path></g><g transform="translate(662.8385326324756 542.5811192038467) rotate(0 -102.83347319799361 -92.38242844729672)"><path d="M-188.08 -154.53 C-192.68 -171.02, -201.08 -180.61, -201.65 -187.54 M-190.36 -156.52 C-192.92 -169.28, -199.09 -178.1, -199.9 -184.87" stroke="#e67700" stroke-width="4" fill="none"></path></g><g transform="translate(662.8385326324756 542.5811192038467) rotate(0 -102.83347319799361 -92.38242844729672)"><path d="M-208.55 -156.02 C-205.09 -172.03, -205.44 -181.03, -201.65 -187.54 M-210.83 -158 C-205.57 -170.05, -203.93 -178.3, -199.9 -184.87" stroke="#e67700" stroke-width="4" fill="none"></path></g></g><g stroke-linecap="round"><g transform="translate(374.08123061252917 348.94333816982356) rotate(0 -1.1168621059568977 86.03984581262691)"><path d="M-0.2 -0.64 C-0.06 28.25, 1.29 143.49, 1.57 171.71 M-3.75 -3.45 C-4.18 26.09, -1.83 146.56, -1.39 175.53" stroke="#e67700" stroke-width="4" fill="none"></path></g><g transform="translate(374.08123061252917 348.94333816982356) rotate(0 -1.1168621059568977 86.03984581262691)"><path d="M-13.04 145.64 C-8.44 154.7, -9.21 168.18, 2.49 175.55 M-11.32 146.69 C-8.05 156.71, -4.68 169.1, -2.16 175.82" stroke="#e67700" stroke-width="4" fill="none"></path></g><g transform="translate(374.08123061252917 348.94333816982356) rotate(0 -1.1168621059568977 86.03984581262691)"><path d="M7.47 145.29 C5.37 154.43, -2.11 168.02, 2.49 175.55 M9.2 146.34 C4.36 156.31, -0.38 168.84, -2.16 175.82" stroke="#e67700" stroke-width="4" fill="none"></path></g></g><g stroke-linecap="round"><g transform="translate(858.8452271969411 529.3289431321186) rotate(0 0.12748577135232608 -109.85755157157007)"><path d="M1.2 0.13 C1.45 -36.09, 2.28 -179.48, 1.59 -215.38 M-1.6 -2.26 C-1.53 -39.53, -0.18 -183.52, 0.52 -219.85" stroke="#862e9c" stroke-width="4" fill="none"></path></g><g transform="translate(858.8452271969411 529.3289431321186) rotate(0 0.12748577135232608 -109.85755157157007)"><path d="M10.59 -188.44 C8.46 -203.35, 5.6 -207.49, 2.49 -221.9 M12.03 -191.72 C6.75 -197.96, 6.93 -207.44, 1.84 -221.71" stroke="#862e9c" stroke-width="4" fill="none"></path></g><g transform="translate(858.8452271969411 529.3289431321186) rotate(0 0.12748577135232608 -109.85755157157007)"><path d="M-9.93 -188.72 C-5.86 -203.72, -2.53 -207.78, 2.49 -221.9 M-8.49 -192 C-8.76 -197.85, -3.57 -207.27, 1.84 -221.71" stroke="#862e9c" stroke-width="4" fill="none"></path></g></g><g stroke-linecap="round" transform="translate(898.0877498544753 284.5) rotate(0 123 34.5)"><path d="M117.91 -0.28 C132.34 -0.91, 149.36 2.14, 163.83 3.73 C178.3 5.32, 192.75 6.55, 204.71 9.27 C216.68 11.99, 228.7 16.4, 235.62 20.05 C242.54 23.7, 245.65 26.89, 246.23 31.18 C246.81 35.47, 244.21 41.7, 239.1 45.78 C234 49.86, 225.89 52.29, 215.6 55.66 C205.31 59.04, 191.4 63.96, 177.35 66.04 C163.3 68.11, 147.11 67.84, 131.29 68.12 C115.47 68.4, 97.25 68.8, 82.43 67.73 C67.6 66.66, 53.79 64.61, 42.34 61.7 C30.9 58.78, 20.96 54.33, 13.77 50.24 C6.58 46.15, 0.52 41.87, -0.78 37.15 C-2.09 32.43, 0.59 26.14, 5.95 21.93 C11.3 17.72, 20.88 15.17, 31.33 11.86 C41.77 8.55, 45.16 3.66, 68.62 2.08 C92.07 0.5, 147.62 0.35, 172.08 2.4 C196.54 4.45, 216.01 13.53, 215.38 14.36 M47.91 5.03 C58.96 2.57, 77.53 2.55, 92.49 1.65 C107.45 0.75, 122.78 -1.26, 137.67 -0.36 C152.56 0.55, 168.62 5.11, 181.82 7.08 C195.03 9.05, 206.86 8.61, 216.9 11.48 C226.93 14.36, 237.02 20.3, 242.03 24.36 C247.04 28.41, 248.77 30.99, 246.94 35.81 C245.11 40.63, 239.19 48.86, 231.04 53.28 C222.88 57.7, 210.51 60.32, 198.02 62.31 C185.54 64.3, 171.47 64.63, 156.13 65.23 C140.79 65.82, 121.31 65.72, 105.98 65.87 C90.64 66.02, 77.36 67.7, 64.12 66.13 C50.87 64.56, 36.52 60.44, 26.5 56.44 C16.48 52.43, 8.73 46.92, 3.98 42.1 C-0.77 37.28, -3.45 31.48, -1.98 27.52 C-0.51 23.57, 4.19 22.01, 12.77 18.37 C21.36 14.74, 43.59 6.98, 49.53 5.72 C55.47 4.46, 47.52 10.11, 48.41 10.81" stroke="#364fc7" stroke-width="4" fill="none"></path></g><g transform="translate(927.0877498544753 300) rotate(0 103.5 18)"><text x="0" y="25" font-family="Virgil, Segoe UI Emoji" font-size="28px" fill="#364fc7" text-anchor="start" style="white-space: pre;" direction="ltr">/api/user-data</text></g><g stroke-linecap="round"><g transform="translate(957.5877498544753 535) rotate(0 0.5130788721144199 -90.4697641648352)"><path d="M-2.64 0.96 C-2.02 -29.64, 2.1 -151.64, 3.67 -181.9 M1.11 -0.98 C1.25 -31.25, -0.09 -147.49, 0.71 -178.22" stroke="#343a40" stroke-width="4" fill="none"></path></g><g transform="translate(957.5877498544753 535) rotate(0 0.5130788721144199 -90.4697641648352)"><path d="M12.2 -151.87 C7.6 -156.08, 6.47 -167.23, 2.98 -177.3 M9.55 -149.48 C10.13 -157.82, 6.47 -161.88, 0.65 -177.75" stroke="#343a40" stroke-width="4" fill="none"></path></g><g transform="translate(957.5877498544753 535) rotate(0 0.5130788721144199 -90.4697641648352)"><path d="M-8.32 -151.98 C-6.8 -155.77, -1.81 -166.88, 2.98 -177.3 M-10.97 -149.59 C-5.86 -157.82, -4.98 -161.85, 0.65 -177.75" stroke="#343a40" stroke-width="4" fill="none"></path></g></g><g stroke-linecap="round"><g transform="translate(26.58774985447525 522) rotate(0 40.518361967802065 0.782449759244912)"><path d="M0.3 -1.81 C14.37 -1.93, 70.07 1.64, 84.02 1.76 M-2.98 3.38 C10.67 3.77, 67.15 -1.52, 81.25 -1.75" stroke="#343a40" stroke-width="4" fill="none"></path></g><g transform="translate(26.58774985447525 522) rotate(0 40.518361967802065 0.782449759244912)"><path d="M51.12 8.74 C65.29 5.24, 69.13 3.11, 81.94 -1.69 M53 10.75 C57.92 8.04, 64.86 3.96, 82 -2.66" stroke="#343a40" stroke-width="4" fill="none"></path></g><g transform="translate(26.58774985447525 522) rotate(0 40.518361967802065 0.782449759244912)"><path d="M49.92 -11.74 C64.79 -9.42, 68.97 -5.71, 81.94 -1.69 M51.8 -9.73 C56.82 -8.01, 64.02 -7.63, 82 -2.66" stroke="#343a40" stroke-width="4" fill="none"></path></g></g><g transform="translate(130.58774985447525 503.5) rotate(0 62 20)"><text x="0" y="30" font-family="Virgil, Segoe UI Emoji" font-size="28px" fill="#343a40" text-anchor="start" style="white-space: pre;" direction="ltr">Get 请求</text></g><g transform="translate(19.58774985447525 632.5) rotate(0 164.5 20)"><text x="0" y="30" font-family="Virgil, Segoe UI Emoji" font-size="28px" fill="#343a40" text-anchor="start" style="white-space: pre;" direction="ltr">OAuth2 及注册/登录流程</text></g></svg>