<svg version="1.1" xmlns="http://www.w3.org/2000/svg" viewBox="0 0 1421 757.5000000000001" width="2842" height="1515.0000000000002" filter="invert(93%) hue-rotate(180deg)">
  <!-- svg-source:excalidraw -->
  
  <defs>
    <style>
      @font-face {
        font-family: "Virgil";
        src: url("https://excalidraw.com/Virgil.woff2");
      }
      @font-face {
        font-family: "Cascadia";
        src: url("https://excalidraw.com/Cascadia.woff2");
      }
    </style>
  </defs>
  <rect x="0" y="0" width="1421" height="757.5000000000001" fill="#ffffff"></rect><g stroke-linecap="round" transform="translate(44 156.5) rotate(0 69 56)"><path d="M0.33 0.22 C40.94 -2.37, 86.17 -2.44, 135.25 -1.47 M-1.94 -1.2 C34.82 2.32, 68.92 1.4, 138.81 -1.17 M140.76 -0.49 C138.56 37.88, 142.78 73.81, 137.58 114.3 M136.33 -1.69 C139.61 42.37, 140 88.22, 137.44 113.83 M135.43 112.81 C100.01 109.15, 66.33 115.35, 1.94 110.3 M139.64 111.93 C97.88 108.47, 57.31 110.96, -0.72 111.36 M-3 110.29 C-0.46 70.57, -0.19 35.97, -1.18 1.48 M-0.91 110.96 C-1.66 73.25, 0.58 36.45, -0.06 -0.1" stroke="#000000" stroke-width="1" fill="none"></path></g><g stroke-linecap="round" transform="translate(519 79.5) rotate(0 159.5 334.00000000000006)"><path d="M-1.38 1.14 C75.11 -1.08, 151.99 1.94, 319.87 -0.43 M0.22 1.08 C90.95 3.58, 181.6 2.2, 319.88 1.07 M320.5 0.69 C318.76 250.44, 317.09 504.08, 317.63 668.82 M318.67 0.65 C317.33 201.72, 317.67 404.02, 318.56 667.97 M318.72 666.5 C189.23 668.39, 64.03 665.96, -1.73 667.13 M319.76 668.01 C204.09 665.51, 87.03 666.41, -0.62 667.94 M0.5 668.29 C2.45 411.85, 0.74 156.14, -1.34 0.78 M-0.44 668.19 C-0.34 515.43, -0.26 360.85, 0.72 -0.03" stroke="#087f5b" stroke-width="1" fill="none"></path></g><g stroke-linecap="round"><g transform="translate(191.02356878184207 196.85116999156958) rotate(343.38950628624707 43.73401921834278 10.691371510230653)"><path d="M0.02 1.54 C14.44 4.37, 71.05 15.67, 85.61 18.49 M-3.41 -0.09 C11.97 2.98, 76.07 17.97, 90.88 21.47" stroke="#364fc7" stroke-width="1" fill="none"></path></g><g transform="translate(191.02356878184207 196.85116999156958) rotate(343.38950628624707 43.73401921834278 10.691371510230653)"><path d="M63.29 22.03 C67.32 23.63, 75.23 22.94, 94.17 20.29 M62.18 24.13 C70.07 22.47, 79.46 23.5, 89.47 21.41" stroke="#364fc7" stroke-width="1" fill="none"></path></g><g transform="translate(191.02356878184207 196.85116999156958) rotate(343.38950628624707 43.73401921834278 10.691371510230653)"><path d="M67.97 2.05 C70.96 9, 77.62 13.67, 94.17 20.29 M66.86 4.15 C73.29 9.24, 81.11 17.01, 89.47 21.41" stroke="#364fc7" stroke-width="1" fill="none"></path></g></g><g transform="translate(219 36) rotate(0 144.5 18)"><text x="0" y="25" font-family="Virgil, Segoe UI Emoji" font-size="28px" fill="#364fc7" text-anchor="start" style="white-space: pre;" direction="ltr">https://hub.kxxt.tech</text></g><g stroke-linecap="round" transform="translate(285 116.5) rotate(0 67 82.5)"><path d="M64.14 -2.84 C82.62 19.65, 99.6 33.49, 136.4 82.63 M66.65 -1.41 C81.23 20.34, 95.71 36.04, 132.74 81.71 M133.85 86.9 C111.55 112.41, 87.6 143.52, 71.88 164.88 M132.69 84.81 C121.44 99.76, 106.94 120.27, 69.24 164.25 M65.5 163.2 C47.1 144.01, 32.16 121, 1.23 81.26 M69.01 163.63 C48.81 139.39, 25.39 109.84, -1.14 82.9 M-2.35 79.86 C27.9 48.37, 56.61 18.39, 69.86 -0.66 M0.52 82.33 C26.34 56.19, 47.36 25.51, 66.5 0.6" stroke="#364fc7" stroke-width="1" fill="none"></path></g><g transform="translate(315 181) rotate(0 37 18)"><text x="0" y="25" font-family="Virgil, Segoe UI Emoji" font-size="28px" fill="#000000" text-anchor="start" style="white-space: pre;" direction="ltr">Nginx</text></g><g transform="translate(291 221) rotate(0 63.5 18)"><text x="0" y="25" font-family="Virgil, Segoe UI Emoji" font-size="28px" fill="#000000" text-anchor="start" style="white-space: pre;" direction="ltr">443 port</text></g><g stroke-linecap="round"><g transform="translate(281.11187818280314 266.2889837717568) rotate(30.009274654533673 6.3258303320196205 97.84665438725267)"><path d="M1.72 1.48 C3.93 34.51, 11.64 164.12, 13.45 195.88 M-0.8 -0.19 C1 32.26, 9.26 159.5, 11.09 191.88" stroke="#d9480f" stroke-width="1" fill="none"></path></g><g transform="translate(281.11187818280314 266.2889837717568) rotate(30.009274654533673 6.3258303320196205 97.84665438725267)"><path d="M1.24 164.06 C5 171.13, 3.19 183.05, 13.27 195.13 M-0.25 164.31 C3.29 170.46, 5.95 179.62, 11.01 191.56" stroke="#d9480f" stroke-width="1" fill="none"></path></g><g transform="translate(281.11187818280314 266.2889837717568) rotate(30.009274654533673 6.3258303320196205 97.84665438725267)"><path d="M21.72 162.81 C19.17 170.51, 11.08 182.82, 13.27 195.13 M20.23 163.06 C18.36 169.39, 15.59 178.88, 11.01 191.56" stroke="#d9480f" stroke-width="1" fill="none"></path></g></g><g transform="translate(291 350) rotate(7.500292434878184 111 71.64545454545453)"><text x="0" y="24.822727272727263" font-family="Virgil, Segoe UI Emoji" font-size="28.25454545454545px" fill="#d9480f" text-anchor="start" style="white-space: pre;" direction="ltr">/index.html</text><text x="0" y="60.64545454545453" font-family="Virgil, Segoe UI Emoji" font-size="28.25454545454545px" fill="#d9480f" text-anchor="start" style="white-space: pre;" direction="ltr">/login</text><text x="0" y="96.46818181818179" font-family="Virgil, Segoe UI Emoji" font-size="28.25454545454545px" fill="#d9480f" text-anchor="start" style="white-space: pre;" direction="ltr">/register</text><text x="0" y="132.29090909090905" font-family="Virgil, Segoe UI Emoji" font-size="28.25454545454545px" fill="#d9480f" text-anchor="start" style="white-space: pre;" direction="ltr">/pictures/*.webp</text></g><g transform="translate(265 616) rotate(0 112 18)"><text x="0" y="25" font-family="Virgil, Segoe UI Emoji" font-size="28px" fill="#862e9c" text-anchor="start" style="white-space: pre;" direction="ltr">@/hub-login/out/</text></g><g stroke-linecap="round"><g transform="translate(419.7890053290097 214.9486975320271) rotate(7.281796927718166 108.75823185543328 -13.708470068806292)"><path d="M-0.08 1.3 C36.41 -3.6, 184.88 -24.04, 221.08 -28.71 M-3.57 -0.47 C32.59 -4.97, 183.91 -20.07, 220.27 -25.21" stroke="#e67700" stroke-width="1" fill="none"></path></g><g transform="translate(419.7890053290097 214.9486975320271) rotate(7.281796927718166 108.75823185543328 -13.708470068806292)"><path d="M195.32 -7.98 C203.19 -18.68, 216.14 -24.81, 223.69 -25.06 M193.58 -12.96 C197.75 -14.93, 205.77 -18.21, 221 -26.01" stroke="#e67700" stroke-width="1" fill="none"></path></g><g transform="translate(419.7890053290097 214.9486975320271) rotate(7.281796927718166 108.75823185543328 -13.708470068806292)"><path d="M192.93 -28.36 C201.8 -31.38, 215.65 -29.81, 223.69 -25.06 M191.18 -33.34 C196.24 -30.4, 204.83 -28.78, 221 -26.01" stroke="#e67700" stroke-width="1" fill="none"></path></g></g><g transform="translate(494 158) rotate(0 27 18)"><text x="0" y="25" font-family="Virgil, Segoe UI Emoji" font-size="28px" fill="#000000" text-anchor="start" style="white-space: pre;" direction="ltr">/api</text></g><g stroke-linecap="round" transform="translate(612 104.5) rotate(0 109.5 112.5)"><path d="M-2.04 2.28 C86.43 -2.32, 172.21 -4.46, 217.97 2.99 M-0.94 1.71 C46.33 0.08, 93.53 -1.86, 219.58 -1.26 M215.64 -1.69 C215.45 57.46, 216.01 118.36, 218.9 228.19 M218.08 -0.31 C218.3 55.64, 215.18 114.77, 217.99 224.81 M217.52 222.55 C163.55 224.66, 106.14 223.69, 3.4 224.95 M217.66 226.26 C165.45 221.98, 114.87 221.36, 1.31 224.15 M-1.37 224.29 C1.92 140.16, 1.63 55.01, -1.19 -3.23 M1.67 226.02 C1.83 177.67, 1.3 128.55, 1.57 0.97" stroke="#e67700" stroke-width="1" fill="none"></path></g><g transform="translate(627 124) rotate(0 100 18)"><text x="0" y="25" font-family="Virgil, Segoe UI Emoji" font-size="28px" fill="#e67700" text-anchor="start" style="white-space: pre;" direction="ltr">uvicorn (ASGI)</text></g><g transform="translate(654 174) rotate(0 70.5 58)"><text x="70.5" y="27.666666666666664" font-family="Virgil, Segoe UI Emoji" font-size="28px" fill="#1864ab" text-anchor="middle" style="white-space: pre;" direction="ltr">我们使用 </text><text x="70.5" y="66.33333333333333" font-family="Virgil, Segoe UI Emoji" font-size="28px" fill="#1864ab" text-anchor="middle" style="white-space: pre;" direction="ltr">FastAPI </text><text x="70.5" y="105" font-family="Virgil, Segoe UI Emoji" font-size="28px" fill="#1864ab" text-anchor="middle" style="white-space: pre;" direction="ltr">编写的后端</text></g><g stroke-linecap="round" transform="translate(631 163.5) rotate(0 94 69)"><path d="M151.13 12.27 C161.53 16.71, 168.81 26.67, 174.83 34.81 C180.85 42.95, 186.13 51.42, 187.26 61.12 C188.38 70.82, 185.41 83.95, 181.56 93.02 C177.71 102.09, 172.42 108.65, 164.15 115.53 C155.87 122.41, 143.77 130.72, 131.91 134.3 C120.05 137.88, 105.78 137.65, 93 137.01 C80.23 136.37, 67.02 134.4, 55.26 130.46 C43.49 126.52, 31.23 120.31, 22.42 113.37 C13.6 106.43, 6.17 97.66, 2.35 88.83 C-1.46 79.99, -2.04 69.85, -0.47 60.34 C1.11 50.84, 5.12 39.99, 11.82 31.79 C18.52 23.59, 28.99 16.05, 39.73 11.13 C50.46 6.2, 63.36 3.94, 76.21 2.23 C89.06 0.53, 100.88 -4.08, 116.82 0.9 C132.77 5.89, 160.78 23.81, 171.89 32.12 C183.01 40.43, 185.03 50.24, 183.49 50.75 M165.89 25.23 C175.3 31.95, 182.07 42.19, 185.62 51.37 C189.17 60.54, 189.47 71.61, 187.2 80.25 C184.92 88.89, 178.35 95.46, 171.98 103.21 C165.6 110.96, 159.06 120.71, 148.93 126.77 C138.81 132.83, 123.99 138.53, 111.21 139.57 C98.42 140.61, 84.83 136, 72.22 133.02 C59.62 130.04, 45.48 126.64, 35.55 121.69 C25.63 116.74, 18.79 111.52, 12.67 103.32 C6.55 95.13, 0.4 82.06, -1.15 72.55 C-2.7 63.03, -1.17 54.53, 3.36 46.25 C7.9 37.97, 16.87 29.31, 26.06 22.85 C35.26 16.39, 46.61 11.07, 58.53 7.48 C70.45 3.9, 84.81 1.04, 97.6 1.34 C110.4 1.63, 123.75 5.54, 135.3 9.26 C146.84 12.98, 161.56 20.82, 166.88 23.66 C172.21 26.5, 168.86 25.63, 167.25 26.3" stroke="#1864ab" stroke-width="1" fill="none"></path></g><g transform="translate(627 297) rotate(0 97 18)"><text x="97" y="25" font-family="Virgil, Segoe UI Emoji" font-size="28px" fill="#d9480f" text-anchor="middle" style="white-space: pre;" direction="ltr">127.0.0.1:5432</text></g><g transform="translate(451 215) rotate(0 78 13)"><text x="78" y="18" font-family="Virgil, Segoe UI Emoji" font-size="20px" fill="#d9480f" text-anchor="middle" style="white-space: pre;" direction="ltr">(Reverse Proxy)</text></g><g stroke-linecap="round" transform="translate(541 508.5) rotate(0 324.5 35.5)"><path d="M0 0 C0 0, 0 0, 0 0 M0 0 C0 0, 0 0, 0 0 M-1.58 4.92 C-0.37 5.47, 3.72 4.3, 3.79 1.73 M0.09 5.72 C1.29 4.36, 2.84 1.61, 4.73 1.06 M-2.7 13.03 C2.94 5.25, 6.18 1.75, 9.46 -0.23 M-1.19 12.34 C3.12 6.93, 7.2 4.22, 12.19 1.3 M-4 19 C3.64 9.69, 11.15 4.41, 15.24 2.04 M-1.12 17.07 C3.38 14.31, 8.1 6.29, 15.4 -0.79 M3.83 27.24 C0.68 21.41, 9.96 16.32, 17.99 -3.87 M1.96 24.81 C8.01 13.58, 14.92 6.89, 20.09 1.54 M1.14 31.47 C10.91 18.42, 17.87 8.68, 23.33 1.24 M1.93 32.31 C5.68 23.95, 16.23 15.18, 27.85 -0.04 M-4.23 39.75 C8.21 29.5, 13.73 20.49, 28.84 2.2 M0.48 38.63 C7.27 28.34, 15.38 19.4, 31.93 1.59 M-1.42 38.71 C11.7 27.33, 18.58 21.16, 36.76 -2.83 M1.73 40.58 C10.75 30.78, 20.44 18.09, 37.24 0.43 M-0.25 45.59 C12.43 30.62, 29.5 12.84, 45.51 1.4 M-0.87 48.17 C16.53 33.45, 29.66 14.03, 42.48 0.5 M-0.37 56.68 C18.31 33.09, 33.89 11.38, 46.67 -1.03 M0.92 56.36 C15.67 37.39, 30.2 21.81, 47.79 -1.02 M-2.28 63.15 C14.7 37.75, 34.07 23.47, 56.46 2.57 M1.75 60.3 C18.29 44, 34.34 22.03, 52.83 1.3 M-0.44 63.48 C13.15 47.84, 31.09 31.83, 56.8 -2.81 M0.17 67.16 C20.5 47.11, 36.03 23.67, 56.43 0.31 M1.6 74.72 C15.87 54.19, 25.76 41.29, 66.75 -0.07 M2.17 70.73 C21.63 51.54, 40.63 28.31, 62.73 -0.66 M2.82 68.77 C24.06 51.37, 44.37 29.38, 67.53 3.72 M7.37 71.05 C27.39 45.03, 50.42 23.27, 68.77 -0.58 M12.44 74.14 C30.1 52.05, 39.21 39.32, 74.06 -2.93 M11.43 71.62 C28.45 55.19, 42.99 37.29, 74.64 -1.72 M19.31 72.41 C35.86 51.57, 46.52 39.57, 75.87 3.84 M17.95 71.18 C30.34 59.5, 43.67 42.71, 79.09 1.62 M24.92 74.5 C40.74 48.96, 55.32 28.73, 84.71 -1.04 M22.22 71.37 C40.46 50.11, 58.73 26.61, 85.69 -1.91 M26.92 68.4 C49.39 48.19, 75.73 22.37, 91.45 -3.79 M29.34 71.82 C49.83 49.19, 69.43 23.66, 90.4 -1.46 M32.15 74.96 C56.56 50.24, 68.96 28.9, 97.64 -4.06 M33.8 73.35 C47.93 54.81, 62.14 41.9, 95.72 -0.96 M40.08 71.59 C61.68 43.09, 82.49 19.36, 104.5 0.86 M37.64 73 C61.41 46.29, 84.25 17.06, 102.35 0.11 M39.88 72.05 C56.71 49.42, 73.87 33.7, 104.41 -4.27 M42.07 71.25 C57.64 56, 74.49 37.64, 107.25 -2.26 M49.86 74.18 C63.32 51.5, 77.47 32.68, 109.92 3.18 M49.6 71.06 C61.11 56.44, 76.63 41.78, 111.31 -1.4 M50.5 75.67 C75.47 50.48, 91.13 25.93, 112.57 0.17 M55.65 73.06 C72.81 51.9, 89.38 30.61, 116.8 -0.15 M55.95 69.77 C76.2 49.09, 89.26 36.07, 123.2 1.97 M58.68 70.65 C81.3 49.98, 103.75 23.31, 122.31 0.55 M63.01 69.1 C87.84 49.86, 110.48 19.42, 124.22 2.22 M63.83 73.11 C82.48 50.23, 99.53 30.56, 125.6 1.06 M66.66 69.33 C89.28 54.4, 102.7 28.4, 132.47 1.37 M69.02 72.75 C85.68 56.71, 98.78 39.16, 133.1 -1.14 M73.03 73 C98.87 49.43, 123.54 20.35, 140.17 -1.52 M76.59 72.02 C96.72 48.75, 119.89 21.16, 135.55 -0.31 M82.93 69.2 C90.88 55.22, 108.17 43.29, 146.48 2.91 M79.44 70.64 C96.48 53.82, 110.26 37.71, 142.1 0.69 M88.81 73.39 C102.09 48.48, 126.5 24.83, 146.46 2.16 M84.61 72.73 C98.1 53.4, 113.84 38.84, 147.93 1.56 M90.32 75.1 C115.95 46.39, 133.74 22.27, 154.6 -2.5 M91.46 69.91 C109.29 54.91, 126.12 33.38, 152.41 -0.43 M99.24 69.69 C115.8 53.11, 128.73 30.14, 161.8 3.85 M95.25 72.48 C115.68 50.42, 137.9 26.99, 158.68 0.83 M98.37 70.86 C122.3 47.32, 142.84 22.09, 166.85 -2.58 M100.62 73.23 C118.66 53.9, 136.4 33.51, 163.83 -0.7 M105.81 74.66 C122.61 57.08, 143.8 29.94, 165.49 3.53 M108.54 70.85 C129.2 45.23, 154.59 19.28, 170.45 -0.02 M111.21 71.46 C135.49 44.17, 161.51 17.54, 173.85 -3.67 M111.14 73.31 C128.05 57.32, 142.5 39.64, 176.84 -2 M114.65 74.46 C130.58 56.82, 146.62 37.24, 177.48 2.54 M117.23 73.71 C129.8 57.09, 143.04 44.89, 180.56 1.78 M123.62 71.48 C138.78 52.09, 155.28 33.95, 186.85 1.24 M123.92 73.43 C142.9 49.1, 163.85 28.46, 184.62 0.12 M128.52 68.63 C149.16 53.01, 165.88 31.69, 194.33 3.58 M126.73 73.24 C139.85 56.89, 151.74 41.72, 189.03 1.34 M131.66 74.14 C157.03 47.44, 170.44 30.64, 197.72 0.56 M135.23 72.44 C153.75 49.35, 174.63 26.84, 197.01 0.4 M138.78 70.06 C152.15 58.89, 166.08 36.53, 205.23 2.76 M139.16 71.95 C154.54 55.39, 165.82 40.2, 202.56 2.05 M140.02 76.04 C168.13 44.32, 195.24 11.16, 202.97 -3.91 M144.03 73.49 C160.91 53.89, 174.4 35.81, 208.58 -0.09 M149.45 73.04 C162.07 53.62, 177.27 44.97, 207.99 -2.46 M149.3 70.65 C170.77 52.66, 185.34 29.83, 210.53 -0.36 M154.02 75.14 C172.29 48.5, 193.84 26.77, 219.73 2.96 M155.95 72.05 C178.47 50.33, 200.05 22.5, 218.55 -1.97 M161.14 69.22 C176.04 46.05, 195.98 24.57, 225.05 2.76 M160.65 72.46 C179.21 49.44, 196.85 28.81, 221.04 -1.86 M163.6 70.78 C191.53 42, 212.15 14.96, 229.74 1.7 M163.33 71.92 C178.13 56.41, 191.25 40.56, 226.84 0.44 M171.12 71.63 C190.98 48.99, 214.05 17.93, 231.48 2.64 M169.37 70.84 C188.84 54.29, 202.41 36.88, 232.83 1.9 M175.32 71.68 C194.39 55.65, 214.2 29.76, 234.73 2.99 M177.17 73.17 C197.35 44.51, 222.62 21.43, 237.4 -0.1 M181.25 74.67 C204.63 50.57, 220.44 21.34, 242.97 -1.23 M180.32 73.51 C203.99 49.11, 220.66 28.81, 243.36 -0.43 M188.37 71.94 C198.04 58.44, 209.21 44.71, 251.01 -3.42 M187.18 72.23 C201.02 56.22, 216.97 38.17, 248.85 1.21 M190.04 70.13 C210.34 48.73, 228.16 27.23, 251.83 2.11 M191.05 70.56 C213.77 46.8, 235.28 24.78, 252.78 0.12 M194.56 75.01 C212.11 46.31, 231.68 29.09, 257.56 3.89 M197.75 73.8 C217.2 47.6, 237.23 23.92, 258.5 1.76 M200.62 71.15 C221.8 52.57, 238.42 31.94, 267 1.01 M203.79 70.36 C222.14 52.1, 242.01 30.5, 263.91 0.84 M210.34 69.74 C218.64 55.32, 238.02 38.28, 270.62 2.94 M207.95 70.93 C228.88 45.17, 250.51 20.32, 269.04 0.48 M212.74 72.28 C232.99 52.84, 248.66 38.12, 274.05 1.19 M213.46 71.59 C228.99 51.05, 245.74 30.72, 274.26 -0.69 M220.76 70.35 C236.46 45.27, 256.95 25.86, 279.08 1.14 M219.56 72.95 C232.07 59.32, 244.41 43.46, 279.82 -1.38 M222.11 74.15 C243.35 53.11, 258.35 31.42, 283.16 1.74 M223.01 72 C243.02 49.42, 257.06 29.72, 288.03 1.45 M227.53 68.43 C245.97 53.03, 259.06 33.41, 292.43 3.28 M229.01 73.52 C244.89 53.06, 260.51 34.21, 290.88 -0.24 M231.06 72.55 C248.37 54.39, 265.82 34.65, 297.15 3.12 M234.06 73.42 C246.91 57.58, 260.74 41.14, 296.13 1.48 M240.95 72.95 C260.81 42.85, 288.15 14.03, 300.79 3.49 M239.46 70.62 C253.83 54.12, 270.33 38.08, 302.96 1.75 M244.56 70.89 C266.41 49.17, 285.82 25.36, 311.46 -0.82 M242.93 74.2 C265.42 49.22, 286 24.45, 308.11 -2.07 M247.95 70.24 C273.88 46.06, 299.6 14.85, 314.94 1.32 M248.72 70.52 C267.99 52.32, 287.97 30.87, 313.48 0.79 M256.85 69.19 C275.3 47, 295.66 21.58, 322.15 1.12 M255.28 70.3 C276.9 44.28, 302.99 14.65, 316.26 1.63 M260.12 72.02 C281.85 42.05, 307.58 19.88, 326.23 1.66 M261.32 71.82 C279.09 53.9, 292.1 34.37, 324.55 -0.61 M266.81 72.86 C289.33 51.2, 305.59 21.38, 325.92 -2.44 M265.49 71.97 C281.52 54.42, 292.96 40.11, 327.51 -0.24 M273.63 75.4 C291.61 40.43, 318.7 12.87, 330.67 -1.2 M272.46 73.42 C290.56 51.66, 305.08 29.12, 334.96 -1.64 M277.95 68.68 C297.26 52.24, 316.18 26.72, 336.07 2.44 M276.59 71.76 C290.9 55.54, 303.05 38.07, 339.51 -0.22 M285.31 70.82 C301.73 57.23, 320.39 30.24, 344.89 0.39 M284.02 70.56 C296.45 56.34, 309.89 39.13, 344.2 0.81 M290.39 72.8 C309.56 45.12, 329.95 22.64, 349.9 -0.12 M288.32 72.56 C307.34 49.5, 326.41 29.08, 347.94 2.23 M292.58 74.14 C314.93 42.2, 339.81 16.62, 358.14 3.46 M292.58 70.75 C311.14 49.76, 329.78 31.73, 356.44 0.2 M300.89 74.74 C321.8 44.64, 338.53 28.37, 359.27 -2.94 M297.09 71.55 C314.33 50.65, 330.7 29.51, 361.11 1.68 M301.52 70.57 C322.39 43.66, 348.84 18.13, 364.3 2.41 M305.41 69.85 C322.4 49.62, 343.4 27.68, 364.53 0.26 M310.82 69.43 C333.54 47.76, 353.77 26.01, 370.72 -3.15 M308.03 72.23 C325.1 50.86, 342.49 33.21, 372.07 -0.69 M310.81 70.7 C331.6 55.48, 342.75 39.27, 377.87 -2.97 M312.46 72 C334.49 44.56, 357.35 21.22, 378.03 -0.92 M318.18 73.13 C342.15 50.73, 364.98 19.78, 384.06 2.71 M318.91 72.41 C337.64 53.49, 354.05 29.35, 381.22 -0.16 M327.77 70.51 C346.49 47.95, 363.86 24.16, 385.98 0.46 M326.37 69.69 C346.13 46.82, 367.17 25.4, 387.16 1.01 M333.6 75.5 C353.75 40.59, 374.62 15.04, 391.74 3.48 M328.24 72.23 C350.06 49.58, 370.49 26.86, 391.63 0.29 M335.68 76.08 C349.7 55.52, 357.63 39.85, 396.37 -0.75 M333.81 72.45 C351.44 50.05, 371.48 29, 398.85 0.75 M340.33 71.57 C367.92 44.52, 386.48 17.98, 402.82 -2.63 M339.17 70.12 C357.09 52.33, 374.29 32.86, 401.06 2.01 M344.42 68.62 C371.86 43.25, 393.66 14.12, 405.44 1.28 M346.1 71.85 C370.05 46, 392.81 16.4, 408.7 -0.7 M350.25 69.74 C367.43 52.87, 387.48 30.68, 410.99 -0.01 M351.57 70.84 C368.78 51.91, 384.9 30.83, 413.98 -1.34 M354.52 72.99 C374.83 54.26, 388.12 32.44, 422.16 -4.16 M355.3 74.07 C372.21 51.21, 390.74 33.89, 417.02 -0.02 M363.86 75.79 C383.12 43.95, 405.44 23.24, 426.56 -3.71 M361.98 73.44 C381.07 51.51, 395.96 31.64, 425.5 0.21 M367.8 74.64 C380.98 49.89, 402.65 27.8, 428.18 1.59 M364.79 72.83 C387.57 44.92, 412.83 20.11, 428.78 0.41 M370.29 68.87 C392.66 48.4, 413.98 31.41, 436.47 -3.39 M371.63 71.3 C391 50.18, 407.4 27.73, 433.47 0.93 M378.69 68.42 C398.92 48.72, 413.45 27.4, 441.75 2.55 M376.65 70.15 C397.18 46.15, 419.18 21.83, 441.65 0.52 M379.29 73.53 C400.64 52.83, 414.52 34.99, 444.29 -3.32 M382.45 72.11 C398.6 52.57, 410.89 37.2, 446.4 -0.56 M390.26 74.55 C405.25 49.48, 426.93 32.12, 453.74 -3.87 M387.65 72.39 C401.64 53.1, 417.09 35.34, 450 -1.43 M397.23 71.65 C413.75 49.53, 434.42 28.12, 454.2 1.59 M393.05 69.87 C418.56 43.87, 442.45 14.06, 455.49 -1.38 M398.21 74.61 C415.4 53.61, 435.06 32.56, 459.66 1.1 M397.23 70.19 C413.54 55.25, 425.37 42.64, 460.87 -0.87 M403.13 74.52 C421.88 55.72, 431.75 36.95, 463.03 1.8 M402.71 72.89 C425.45 47.93, 445.29 26.05, 466.63 1.7 M406.83 75.58 C426.89 48.55, 453.25 21.57, 474.97 2.39 M407.54 70.53 C425.84 51.5, 445.44 30.68, 473.33 1.82 M412.6 74.8 C432.66 54.31, 443.58 35, 476.2 -2.85 M415.43 71.81 C432.31 48.92, 451.71 27.9, 476.4 0.22 M421.09 69.8 C440.11 41.19, 466.56 20.27, 481.75 4 M419.4 72.69 C434.49 53.82, 448.65 38.2, 481.12 -1.68 M421.89 70.51 C444.53 51.5, 464.81 24.46, 483.79 -3.13 M423.87 71.55 C444.97 48.01, 467.07 25.77, 488.06 -1.98 M430.52 74.97 C450.97 46.71, 472.66 26.59, 488.7 1.59 M432.33 72.27 C450.17 47.24, 472.6 21.65, 492.7 0.89 M439.89 73.05 C458.42 47.83, 481.18 20.21, 500.49 3.54 M437.4 71.38 C455.62 48.05, 475.84 27.49, 499.57 -0.75 M441.34 70.21 C466.13 46.57, 487.24 17.41, 501.84 3.45 M440.52 73.17 C454.39 56.36, 467.41 44.81, 501.86 -0.66 M447.45 75.97 C463.68 46.96, 490.98 24.73, 509.6 -2.87 M445.4 73.6 C463.95 51.21, 483.41 29.76, 507.56 0.39 M452.35 67.96 C471.46 53.53, 489.93 29.44, 515.78 -0.77 M452.88 71.61 C469.92 48.71, 489.32 25.91, 515.07 1.8 M455.99 75.9 C467.74 52.99, 490.24 36.1, 519.07 -1.02 M455.92 72.58 C473.39 54.85, 486.96 37.2, 519.36 -1.78 M462.99 74.08 C474.85 52.87, 489.48 36.79, 521.79 -0.04 M460.98 72.13 C486.35 45.37, 510.48 18.96, 523.52 -1.3 M463.62 69.13 C485.69 54.99, 503.9 30.79, 529.46 -0.19 M467.72 71.28 C490.6 44.59, 517.43 17.14, 528.98 -2.17 M473.32 71.78 C494.45 49.11, 511.02 26.32, 531.74 -1.96 M471.07 71.56 C487.39 54.38, 500.61 39.46, 535.06 -1.19 M481.7 72.57 C493.22 57.32, 507.91 38.5, 541.96 -0.29 M476.91 74.18 C498.13 49.74, 520.35 24.44, 541.13 0.62 M484.04 69.65 C497.83 54.02, 505.85 44.7, 546.13 -0.75 M484.12 71.08 C495.49 52.32, 512.07 35.67, 546.24 1.17 M486.26 68.49 C500.05 53.06, 517.93 35.01, 550.39 0.15 M488.29 72.11 C510.55 46.43, 532.31 22.89, 551.2 0.33 M496.46 69.66 C515.55 49.74, 536.29 29.16, 554.09 -1.25 M495.77 72.13 C513.3 51.7, 531.48 29.33, 558.28 -0.83 M497.9 68.55 C521.37 44.95, 542.34 20.97, 565.19 -4.04 M499.34 70.18 C515.14 52.94, 530.13 35.55, 561.27 -1.02 M504.52 75.14 C525.44 47.5, 544.16 28.9, 565.36 -2.94 M504.33 72.52 C526.94 46.29, 547.88 20.31, 565.12 0.49 M509.89 73.77 C529.16 50.46, 549.59 27.01, 573.42 -0.63 M508.23 71.84 C532.84 47.35, 558.74 17.93, 572.09 -1.08 M518.78 74.83 C535.93 49.58, 556.99 17.05, 578.33 0.09 M514.83 70.33 C537.41 44.08, 560.18 19.61, 577.36 -0.86 M520.1 74.57 C545.19 47.04, 563.33 17.29, 586.11 0.73 M521.83 70.84 C542.65 48.66, 563.84 22.29, 582.48 -0.45 M526.43 74.81 C550.38 41.84, 574.93 14.15, 588.01 3.13 M526.97 71.97 C546.88 51.32, 567.43 29.34, 590.29 -0.57 M531.03 74.72 C552.21 48.42, 567.64 29.12, 592.88 -2.52 M531.67 71.23 C551.29 49.38, 569.95 26.25, 591.86 -1.66 M539.3 74.54 C556.13 48.36, 580.21 24.54, 602 -1.19 M535.13 72.16 C559.17 45.2, 585.76 17.09, 599.9 -0.02 M541.81 75.37 C563.83 42.19, 590.16 16.02, 606.04 -1.27 M541.99 71.41 C556.77 57.45, 568.41 42.17, 604.43 -0.67 M545.8 74.87 C567.37 51.94, 580.07 28.79, 608.58 1.18 M548.4 69.93 C570.32 42.78, 593.58 15.9, 610.86 1.74 M556.19 75.05 C571.02 48.85, 590.61 23.95, 615.13 -1.8 M553.71 72.05 C575.4 48.14, 595.21 22.52, 615.69 2.11 M559.02 70.01 C571.38 55.14, 593.01 36.78, 616.61 -2.36 M558.53 72.63 C576.88 48.06, 597.23 24.28, 620.53 -0.05 M566.55 69.68 C585.96 45.54, 611.23 21.15, 626.35 -1.04 M564.43 72.16 C580.6 54.28, 594.34 34.72, 623.84 -1.42 M567.99 72.32 C586.39 43.22, 610.81 18.36, 631.59 -3.04 M567.34 72.66 C582.32 55.85, 597.12 36.24, 630.96 0.18 M569.88 68.52 C598.32 40.38, 619.19 13.91, 638.51 -2.5 M572.47 73.05 C596.76 41.67, 619.82 15.51, 637.78 0.98 M580.33 69.24 C594.41 51.44, 609.53 32.42, 639.66 -2.7 M577.25 72.5 C604.88 40.53, 631.5 12.35, 640.87 -1.69 M583.83 70.24 C602.68 60.14, 610.49 35.86, 643.05 -0.34 M584.79 70.34 C596.76 55.1, 613.04 42.02, 645.08 1.82 M586.32 75.88 C612.65 48.08, 636.37 20.93, 654.25 3.7 M587.46 73.17 C605.4 53.19, 622.04 36.39, 652.37 2.03 M598.63 70.85 C617.11 46.83, 631.76 28.06, 649.47 4.19 M593.07 69.98 C609.77 55.24, 621.17 41.44, 649.44 9.5 M601.53 75.95 C612.39 53.34, 631.01 38.87, 654.87 10.12 M600.46 71.28 C613.57 55.6, 630.87 38.02, 649.71 12.89 M609.17 71.77 C616.74 62.04, 625.92 47.22, 653.1 16.67 M605.66 72.21 C615.26 60.79, 623.91 50.75, 650.45 18.17 M610.15 70.54 C629.57 53.42, 639.68 41.13, 650.05 29.03 M609.48 71.72 C620.69 62, 629.28 50.17, 650.21 27.91 M614.95 71.78 C630.2 60.61, 635.74 45.44, 651.17 34.54 M615.63 71.6 C629.14 56.24, 645.11 41.15, 651.68 32.75 M620.99 70.13 C630.52 59.89, 640.43 53.05, 653.73 38.58 M622.38 71.72 C632.62 63, 641.05 48.02, 648.65 38.7 M628.09 75.03 C636.55 65.29, 640.89 54.41, 653.64 45.14 M624.68 73.03 C634.71 59.08, 644.74 48.46, 651.45 43.04 M635.49 70.54 C640.35 63.5, 640.18 57.66, 650.49 48.54 M629.76 72.81 C640.12 63.5, 647.96 55.67, 650.57 49.45 M633.35 75.04 C638.98 65.15, 641.18 64.62, 654.4 53.94 M639.26 71.68 C640.36 66.59, 645.65 62.98, 650.13 55.88 M640.62 70.07 C646.1 69.85, 648.33 68.3, 653.03 64.24 M641.36 72.56 C646.11 69.11, 647.81 65.13, 650.81 62.02 M647.16 71.47 C649.61 71.09, 649.4 69.13, 650.43 68.01 M647.63 71.93 C648.72 70.92, 649.63 69.89, 650.18 68.54" stroke="#fd7e14" stroke-width="0.5" fill="none"></path><path d="M0.29 -1.56 C194.94 4.66, 388.15 4.24, 650.31 -0.64 M-0.49 -0.07 C170.62 -1.98, 341.72 -1.86, 649.66 0.08 M648.06 -3.18 C652.63 28.97, 650.43 58.07, 646.45 68.45 M649.67 -0.81 C647.45 26.37, 650.05 52.03, 648.9 72.75 M649.59 71.22 C390.98 74.74, 128.87 74.14, -1.57 69.75 M648.59 71.78 C500.55 69.97, 353.41 70.22, 0.41 71.36 M0.84 70.01 C-3.58 45.56, 1.65 24.43, -0.62 -0.32 M-1.7 70 C0.61 42.53, -0.05 16, 1.44 -1.48" stroke="#d9480f" stroke-width="1" fill="none"></path></g><g transform="translate(74 186.5) rotate(0 39 26)"><text x="39" y="18" font-family="Virgil, Segoe UI Emoji" font-size="20px" fill="#000000" text-anchor="middle" style="white-space: pre;" direction="ltr">客户端</text><text x="39" y="44" font-family="Virgil, Segoe UI Emoji" font-size="20px" fill="#000000" text-anchor="middle" style="white-space: pre;" direction="ltr">(浏览器)</text></g><g transform="translate(608.5 32.5) rotate(0 56.5 18)"><text x="56.5" y="25" font-family="Virgil, Segoe UI Emoji" font-size="28px" fill="#000000" text-anchor="middle" style="white-space: pre;" direction="ltr">127.0.0.1</text></g><g transform="translate(69.5 36) rotate(0 40.5 57)"><text x="40.5" y="21.5" font-family="Virgil, Segoe UI Emoji" font-size="20px" fill="#087f5b" text-anchor="middle" style="white-space: pre;" direction="ltr">中国电信</text><text x="40.5" y="50" font-family="Virgil, Segoe UI Emoji" font-size="20px" fill="#087f5b" text-anchor="middle" style="white-space: pre;" direction="ltr">中国联通</text><text x="40.5" y="78.5" font-family="Virgil, Segoe UI Emoji" font-size="20px" fill="#087f5b" text-anchor="middle" style="white-space: pre;" direction="ltr">中国移动</text><text x="40.5" y="107" font-family="Virgil, Segoe UI Emoji" font-size="20px" fill="#087f5b" text-anchor="middle" style="white-space: pre;" direction="ltr">长城宽带</text></g><g transform="translate(303.5 78.5) rotate(0 50.5 18)"><text x="50.5" y="25" font-family="Virgil, Segoe UI Emoji" font-size="28px" fill="#087f5b" text-anchor="middle" style="white-space: pre;" direction="ltr">0.0.0.0</text></g><g stroke-linecap="round" transform="translate(1022 472.5) rotate(0 186 131)"><path d="M0.94 1.81 C136.19 -2, 271.18 -0.76, 371.2 1.88 M0.35 -0.21 C144.27 0.17, 286.34 0.42, 372.89 -0.52 M373.66 -1.1 C369.3 84.26, 368.48 163.61, 373.9 261.65 M371.1 -0.04 C372.33 87.62, 372.21 175.91, 371.81 260.8 M374.14 263.22 C269.93 261.55, 168.35 259.84, 1.07 260.84 M371.14 260.91 C277.45 264.81, 184.55 266.16, -0.56 262.35 M-1.23 262.93 C2.92 160.79, -1.26 59.99, -1.18 -2.26 M-0.2 261 C-4.05 196.65, -2.42 131.7, 0.35 -0.09" stroke="#a61e4d" stroke-width="1" fill="none"></path></g><g stroke-linecap="round" transform="translate(1016 412.5) rotate(0 188.5 20.5)"><path d="M0.6 5.82 C0.6 5.82, 0.6 5.82, 0.6 5.82 M0.6 5.82 C0.6 5.82, 0.6 5.82, 0.6 5.82 M0.21 30.65 C4.64 23.56, 13.5 15.58, 19.89 8.01 M0.21 30.65 C5.17 25.77, 7.96 20.98, 19.89 8.01 M11.62 41.91 C19.42 34.7, 23.53 27.14, 41.15 7.94 M11.62 41.91 C19.84 32.68, 29.21 23.07, 41.15 7.94 M32.89 41.84 C44.98 31.28, 53.57 18.61, 62.41 7.87 M32.89 41.84 C39.43 34.43, 47.05 24.91, 62.41 7.87 M54.15 41.77 C61.42 31.65, 68.73 24.24, 83.01 8.56 M54.15 41.77 C66.27 29.69, 76.55 16.56, 83.01 8.56 M75.41 41.7 C87.99 28.44, 97.98 14.28, 104.27 8.49 M75.41 41.7 C86.04 29.77, 94.49 18.65, 104.27 8.49 M96.01 42.38 C105.8 29.2, 116.49 19.15, 125.53 8.42 M96.01 42.38 C103.78 33.5, 110.02 25.26, 125.53 8.42 M117.27 42.32 C127.72 29.87, 138.5 17.62, 146.79 8.35 M117.27 42.32 C127.41 31.69, 135.16 20.85, 146.79 8.35 M138.53 42.25 C149.44 31.64, 160.99 17.63, 168.05 8.28 M138.53 42.25 C148.8 29.68, 159.76 17.59, 168.05 8.28 M159.79 42.18 C170.01 32.36, 179.26 21.9, 189.31 8.22 M159.79 42.18 C169.06 30.3, 178.09 20.18, 189.31 8.22 M181.05 42.11 C185.07 36.88, 190.98 28.79, 210.57 8.15 M181.05 42.11 C191.17 30.87, 202.32 18.01, 210.57 8.15 M202.31 42.04 C213.38 29.04, 220.96 19.91, 231.83 8.08 M202.31 42.04 C212.56 29.84, 221.84 18.74, 231.83 8.08 M223.57 41.97 C233.35 31.48, 240.62 17.98, 253.09 8.01 M223.57 41.97 C230.88 33.12, 239.44 23.2, 253.09 8.01 M244.83 41.9 C252.61 31.67, 263.41 21.31, 274.35 7.94 M244.83 41.9 C254.22 29.97, 264.04 19.83, 274.35 7.94 M266.09 41.83 C275.7 33.35, 283.25 19.65, 295.61 7.87 M266.09 41.83 C275.23 29.68, 285.63 19.16, 295.61 7.87 M287.35 41.76 C295.84 29.77, 306.41 18.17, 316.22 8.56 M287.35 41.76 C293.83 34.84, 300.22 26.95, 316.22 8.56 M308.61 41.69 C318.05 31.48, 330.13 19, 337.48 8.49 M308.61 41.69 C317.99 29.3, 329.38 17.44, 337.48 8.49 M329.22 42.38 C335.32 32.19, 345.9 26.84, 358.74 8.42 M329.22 42.38 C337.88 33.04, 347.49 21.32, 358.74 8.42 M350.48 42.31 C359.81 28.49, 371.06 19.14, 380 8.35 M350.48 42.31 C359.22 32.81, 367.85 22.63, 380 8.35" stroke="#868e96" stroke-width="2" fill="none"></path><path d="M10.25 0 M10.25 0 C95.47 -0.28, 179.32 1.65, 366.75 0 M10.25 0 C125.17 -1.42, 240.5 -0.89, 366.75 0 M366.75 0 C373.89 -0.99, 375.06 4.24, 377 10.25 M366.75 0 C372.95 1.75, 376.63 4.66, 377 10.25 M377 10.25 C378.33 19.57, 377.05 24.71, 377 30.75 M377 10.25 C377.71 16.14, 376.59 21.31, 377 30.75 M377 30.75 C378.64 38.15, 373.8 40.98, 366.75 41 M377 30.75 C375.59 36.15, 371.5 42.31, 366.75 41 M366.75 41 C226.5 43.19, 84.75 43, 10.25 41 M366.75 41 C252.6 43.12, 138.53 43.53, 10.25 41 M10.25 41 C2.45 42.28, 0.76 39.09, 0 30.75 M10.25 41 C4.42 39.63, 0.28 39.15, 0 30.75 M0 30.75 C-0.03 23.86, -0.45 16.32, 0 10.25 M0 30.75 C-0.44 24.59, -0.49 17.84, 0 10.25 M0 10.25 C-1.32 3.32, 2.47 1.39, 10.25 0 M0 10.25 C0.44 2.06, 5.67 -0.1, 10.25 0" stroke="#495057" stroke-width="4" fill="none"></path></g><g transform="translate(1031 415) rotate(0 54 18)"><text x="54" y="25" font-family="Virgil, Segoe UI Emoji" font-size="28px" fill="#343a40" text-anchor="middle" style="white-space: pre;" direction="ltr">iptables</text></g><g stroke-linecap="round" transform="translate(537 369.5) rotate(0 106 49)"><path d="M-0.23 0.57 C63.15 1.21, 125.04 1.81, 213.53 -0.45 M0.09 -0.05 C52.26 0.2, 103.6 -1, 212.72 -0.66 M212.25 1 C214.38 24.96, 212.29 44.68, 211.03 99.88 M211.2 0.14 C211.39 21.21, 211.19 39.92, 211.33 98.02 M210.39 98.06 C142.54 97.19, 73.98 98.33, 1.15 98.83 M211.89 98.18 C141.99 99.41, 71.52 98.39, 0.36 97.73 M1.26 98.04 C-0.27 67.89, -1.78 33.98, 0.21 0.24 M0.73 97.48 C-0.36 69.51, 0.6 42.88, 0.44 0.71" stroke="#e67700" stroke-width="1" fill="none"></path></g><g stroke-linecap="round" transform="translate(1120 107.5) rotate(0 139 140.5)"><path d="M103.81 2.81 C117.02 -2.69, 134.22 0, 149.15 1.19 C164.08 2.38, 179.81 4.03, 193.4 9.97 C206.99 15.91, 219.59 26.24, 230.69 36.84 C241.79 47.44, 252.61 60.22, 259.99 73.58 C267.36 86.93, 272.01 102.25, 274.94 116.96 C277.87 131.67, 280.09 146.96, 277.59 161.85 C275.08 176.73, 267.31 192.47, 259.91 206.26 C252.51 220.06, 243.64 234.19, 233.2 244.62 C222.76 255.05, 210.56 262.7, 197.28 268.82 C184 274.94, 168.77 280.12, 153.54 281.34 C138.3 282.55, 120.54 279.78, 105.87 276.12 C91.2 272.46, 77.84 267.7, 65.51 259.37 C53.19 251.04, 41.24 237.91, 31.92 226.13 C22.61 214.34, 14.74 202.89, 9.61 188.66 C4.48 174.44, 1.36 155.9, 1.14 140.77 C0.91 125.64, 3.58 112.48, 8.25 97.88 C12.91 83.28, 19.86 65.88, 29.13 53.17 C38.4 40.47, 41.73 30.26, 63.86 21.67 C86 13.08, 136.66 0.98, 161.91 1.64 C187.17 2.3, 216.11 23.18, 215.37 25.6 M174.8 3.64 C189.56 5.19, 204.59 16.11, 217.57 25.02 C230.56 33.93, 243.89 45.34, 252.71 57.1 C261.53 68.85, 265.86 81.26, 270.49 95.55 C275.12 109.84, 280.45 127.64, 280.49 142.85 C280.53 158.07, 276.69 172.77, 270.72 186.86 C264.75 200.94, 253.76 215.05, 244.67 227.35 C235.58 239.66, 227.94 252.53, 216.17 260.69 C204.4 268.86, 189.3 272.57, 174.04 276.32 C158.78 280.07, 140.25 284.24, 124.61 283.2 C108.98 282.15, 94.06 276.67, 80.22 270.06 C66.38 263.45, 52.25 254.21, 41.57 243.56 C30.89 232.9, 22.95 219.42, 16.15 206.13 C9.34 192.84, 3.43 178.86, 0.75 163.81 C-1.94 148.76, -2.39 130.77, 0.05 115.82 C2.5 100.87, 7.79 87.6, 15.42 74.13 C23.05 60.66, 34.56 45.6, 45.82 34.99 C57.08 24.38, 68.84 16.28, 82.96 10.46 C97.07 4.64, 115.08 1.04, 130.53 0.06 C145.98 -0.93, 168.76 3.64, 175.66 4.53 C182.55 5.42, 172.15 3.19, 171.91 5.4" stroke="#1864ab" stroke-width="4" fill="none"></path></g><g transform="translate(1169.5 134) rotate(0 81.5 20)"><text x="81.5" y="30" font-family="Virgil, Segoe UI Emoji" font-size="28px" fill="#1864ab" text-anchor="middle" style="white-space: pre;" direction="ltr">Docker 容器</text></g><g transform="translate(1175 200) rotate(0 84 18)"><text x="84" y="25" font-family="Virgil, Segoe UI Emoji" font-size="28px" fill="#087f5b" text-anchor="middle" style="white-space: pre;" direction="ltr">Jupyter Lab</text></g><g transform="translate(1184 71) rotate(0 64 18)"><text x="64" y="25" font-family="Virgil, Segoe UI Emoji" font-size="28px" fill="#1864ab" text-anchor="middle" style="white-space: pre;" direction="ltr">172.17.0.2</text></g><g stroke-linecap="round" transform="translate(967 65.5) rotate(0 222 340.5)"><path d="M0.92 0.31 C148.18 3.67, 297.37 1.27, 445.09 1.21 M0.23 0.78 C101.73 -0.81, 203.5 -0.4, 443.51 0.48 M445.31 -1.04 C448.43 168.99, 448.22 341.01, 444.46 679.54 M443.39 0.24 C446.5 175.3, 446.57 351.73, 444.6 680.55 M443.58 681.68 C315.72 680.62, 185.67 680.57, -1.87 681.66 M443.65 681.55 C319.04 678.45, 194.18 678.03, -0.02 680.12 M0.63 680.46 C-3.21 479.11, -1.82 276.37, 0.91 0.06 M-0.12 680.53 C-1.04 537.32, -1.14 392.73, 0.58 0.72" stroke="#087f5b" stroke-width="2" fill="none"></path></g><g transform="translate(1098.5 10) rotate(0 109.5 20)"><text x="109.5" y="30" font-family="Virgil, Segoe UI Emoji" font-size="28px" fill="#087f5b" text-anchor="middle" style="white-space: pre;" direction="ltr">Docker 虚拟网卡</text></g><g stroke-linecap="round" transform="translate(1157 186.5) rotate(0 99.5 69.5)"><path d="M-2.72 -1.9 C66.44 -1.22, 138.81 -2.83, 195.31 -2.79 M0.42 0.53 C69.37 3.47, 137.56 0.4, 198.74 1.76 M202.94 0.7 C201.33 47.31, 202.85 98.12, 196.94 138.36 M199.77 0.15 C200.43 32.9, 202.73 65.48, 198.95 138.6 M197.77 141.28 C140.46 143.75, 85.7 145.24, 2.75 139.54 M198.08 137.97 C139.3 134.64, 83.37 135.01, 0.89 137.22 M1.49 141.82 C3.92 85.81, 4.05 38.87, 0.22 -1.66 M-1.38 138.5 C-0.77 96.18, -1.2 51.67, 0.54 -1.24" stroke="#087f5b" stroke-width="2" fill="none"></path></g><g transform="translate(1174 258) rotate(0 79 13)"><text x="79" y="18" font-family="Virgil, Segoe UI Emoji" font-size="20px" fill="#087f5b" text-anchor="middle" style="white-space: pre;" direction="ltr">172.17.0.2:8888</text></g><g transform="translate(550.5 377.5) rotate(0 93.5 13)"><text x="93.5" y="18" font-family="Virgil, Segoe UI Emoji" font-size="20px" fill="#e67700" text-anchor="middle" style="white-space: pre;" direction="ltr">JupyterHub's Proxy</text></g><g transform="translate(544.5 404.5) rotate(0 96 25.5)"><text x="96" y="18.5" font-family="Virgil, Segoe UI Emoji" font-size="20px" fill="#d9480f" text-anchor="middle" style="white-space: pre;" direction="ltr">Web: 127.0.0.1:8000</text><text x="96" y="44" font-family="Virgil, Segoe UI Emoji" font-size="20px" fill="#d9480f" text-anchor="middle" style="white-space: pre;" direction="ltr">API: 127.0.0.1:8001</text></g><g transform="translate(721.5 539) rotate(0 149.5 18)"><text x="149.5" y="25" font-family="Virgil, Segoe UI Emoji" font-size="28px" fill="#000000" text-anchor="middle" style="white-space: pre;" direction="ltr">JupyterHub's Hub API</text></g><g stroke-linecap="round"><g transform="translate(598.6506762156514 468.471494461871) rotate(5.060785728151777 0.44976851334229195 17.489752219632692)"><path d="M1.59 2.75 C1.98 8.37, 1.91 27.79, 1.81 33.2 M-0.99 1.78 C-0.89 6.55, -0.24 23.69, -0.25 28.59" stroke="#087f5b" stroke-width="4" fill="none"></path></g><g transform="translate(598.6506762156514 468.471494461871) rotate(5.060785728151777 0.44976851334229195 17.489752219632692)"><path d="M-2.9 13.82 C-3.64 17.09, 0.35 22.33, -2.44 25.9 M-4.81 12.38 C-3.29 19.24, -1.05 23.51, -0.06 30.21" stroke="#087f5b" stroke-width="4" fill="none"></path></g><g transform="translate(598.6506762156514 468.471494461871) rotate(5.060785728151777 0.44976851334229195 17.489752219632692)"><path d="M8.2 13.61 C4.35 17.06, 5.21 22.36, -2.44 25.9 M6.3 12.17 C3.78 19.05, 1.98 23.4, -0.06 30.21" stroke="#087f5b" stroke-width="4" fill="none"></path></g></g><g stroke-linecap="round"><g transform="translate(629.2236002391662 501.59787711481795) rotate(0 0.8594615338708422 -15.045678410692858)"><path d="M-2.44 2.17 C-1.68 -3.67, 2.83 -26.78, 4.16 -32.26 M1.43 0.88 C1.77 -3.54, 0.99 -25.29, 1.41 -30.15" stroke="#087f5b" stroke-width="4" fill="none"></path></g><g transform="translate(629.2236002391662 501.59787711481795) rotate(0 0.8594615338708422 -15.045678410692858)"><path d="M8.64 -17.04 C1.65 -19.69, 1.88 -24.26, -0.95 -31.68 M6.11 -17.44 C3.37 -21.52, 2.65 -24.22, 1.07 -30.18" stroke="#087f5b" stroke-width="4" fill="none"></path></g><g transform="translate(629.2236002391662 501.59787711481795) rotate(0 0.8594615338708422 -15.045678410692858)"><path d="M-1.59 -17.18 C-5.65 -19.62, -2.5 -24.15, -0.95 -31.68 M-4.12 -17.59 C-3.39 -21.57, -0.64 -24.22, 1.07 -30.18" stroke="#087f5b" stroke-width="4" fill="none"></path></g></g><g stroke-linecap="round"><g transform="translate(392.8054982259597 251.73949845310926) rotate(0 89.29792235195981 59.71200652290776)"><path d="M0.38 -2.17 C30.69 18.51, 151.7 101.07, 181.45 121.59 M-2.85 2.82 C27.16 22.84, 148.21 96.79, 179.44 117.02" stroke="#e67700" stroke-width="2" fill="none"></path></g><g transform="translate(392.8054982259597 251.73949845310926) rotate(0 89.29792235195981 59.71200652290776)"><path d="M147.01 111.33 C159.52 109.38, 167.04 117.6, 182.77 120.4 M149.28 108.81 C156.88 111.76, 169.39 114.09, 179.34 115.57" stroke="#e67700" stroke-width="2" fill="none"></path></g><g transform="translate(392.8054982259597 251.73949845310926) rotate(0 89.29792235195981 59.71200652290776)"><path d="M157.92 93.95 C167.01 96.99, 171.42 110.17, 182.77 120.4 M160.19 91.43 C164.5 99.73, 173.76 107.23, 179.34 115.57" stroke="#e67700" stroke-width="2" fill="none"></path></g></g><g transform="translate(447 277) rotate(32.61924307119281 55 18)"><text x="55" y="25" font-family="Virgil, Segoe UI Emoji" font-size="28px" fill="#000000" text-anchor="middle" style="white-space: pre;" direction="ltr">/jupyter</text></g><g stroke-linecap="round"><g transform="translate(768.2583469804408 505.9540416665376) rotate(0 14.566419444661847 -88.01787752307953)"><path d="M-1.1 1.15 C4.09 -27.59, 25.64 -143.5, 30.23 -173.33 M3.5 -0.69 C8.61 -30.12, 25.84 -147.97, 29.23 -177.19" stroke="#1864ab" stroke-width="2" fill="none"></path></g><g transform="translate(768.2583469804408 505.9540416665376) rotate(0 14.566419444661847 -88.01787752307953)"><path d="M37.3 -144.62 C37.17 -157.86, 29.03 -160.07, 27.23 -178.22 M35.23 -148.06 C34.22 -154.9, 31.29 -166.19, 30.65 -175.62" stroke="#1864ab" stroke-width="2" fill="none"></path></g><g transform="translate(768.2583469804408 505.9540416665376) rotate(0 14.566419444661847 -88.01787752307953)"><path d="M16.97 -147.35 C22.23 -159.7, 19.52 -161.19, 27.23 -178.22 M14.89 -150.78 C19.74 -156.51, 22.65 -167.02, 30.65 -175.62" stroke="#1864ab" stroke-width="2" fill="none"></path></g></g><g transform="translate(790 395) rotate(0 77 53.5)"><text x="0" y="24.666666666666664" font-family="Virgil, Segoe UI Emoji" font-size="28px" fill="#1864ab" text-anchor="start" style="white-space: pre;" direction="ltr">(OAuth2)</text><text x="0" y="60.33333333333333" font-family="Virgil, Segoe UI Emoji" font-size="28px" fill="#1864ab" text-anchor="start" style="white-space: pre;" direction="ltr">/token</text><text x="0" y="96" font-family="Virgil, Segoe UI Emoji" font-size="28px" fill="#1864ab" text-anchor="start" style="white-space: pre;" direction="ltr">/user-data</text></g><g stroke-linecap="round"><g transform="translate(541.1600794081389 422.261966481502) rotate(0 -82.00690450169145 -5.253029057977187)"><path d="M-1.97 2.68 C-28.95 0.84, -136.53 -10.73, -163.31 -13.19 M2.16 1.67 C-25.17 0.38, -138.36 -8.53, -166.17 -10.34" stroke="#1864ab" stroke-width="2" fill="none"></path></g><g transform="translate(541.1600794081389 422.261966481502) rotate(0 -82.00690450169145 -5.253029057977187)"><path d="M-133.48 -20.18 C-146.66 -17.61, -152.3 -15.36, -163.56 -7.44 M-136.57 -19.4 C-144.89 -15.52, -154.06 -11.42, -168.04 -10.59" stroke="#1864ab" stroke-width="2" fill="none"></path></g><g transform="translate(541.1600794081389 422.261966481502) rotate(0 -82.00690450169145 -5.253029057977187)"><path d="M-134.96 0.29 C-147.46 -2.21, -152.73 -5.06, -163.56 -7.44 M-138.05 1.06 C-145.55 -1.53, -154.26 -3.89, -168.04 -10.59" stroke="#1864ab" stroke-width="2" fill="none"></path></g></g><g transform="translate(415.9830054047029 383.30200345102844) rotate(6.441600099335004 62.701352218043496 35.33171434508802)"><text x="0" y="25.331714345088017" font-family="Virgil, Segoe UI Emoji" font-size="27.867267652463784px" fill="#1864ab" text-anchor="start" style="white-space: pre;" direction="ltr">redirect</text><text x="0" y="60.66342869017603" font-family="Virgil, Segoe UI Emoji" font-size="27.867267652463784px" fill="#1864ab" text-anchor="start" style="white-space: pre;" direction="ltr">(OAuth2)</text></g><g transform="translate(1035 473) rotate(0 106.5 18)"><text x="0" y="25" font-family="Virgil, Segoe UI Emoji" font-size="28px" fill="#862e9c" text-anchor="start" style="white-space: pre;" direction="ltr">172.17.0.1 (Host)</text></g><g stroke-linecap="round"><g transform="translate(1180.5461539676057 326.91573527529835) rotate(0 -4.6908052398119935 90.28392979338764)"><path d="M2.02 1.22 C0.64 30.71, -7.3 148.9, -9.22 178.52 M-0.32 -0.58 C-1.98 29.08, -9.55 150.84, -11.41 181.15" stroke="#d9480f" stroke-width="2" fill="none"></path></g><g transform="translate(1180.5461539676057 326.91573527529835) rotate(0 -4.6908052398119935 90.28392979338764)"><path d="M-18.17 152.53 C-19.95 159.64, -17.06 165.88, -14.73 179.87 M-19.93 150.98 C-17.94 163.19, -14.51 176.6, -9.85 179.83" stroke="#d9480f" stroke-width="2" fill="none"></path></g><g transform="translate(1180.5461539676057 326.91573527529835) rotate(0 -4.6908052398119935 90.28392979338764)"><path d="M2.31 153.79 C-4.95 160.86, -7.51 166.76, -14.73 179.87 M0.56 152.24 C-5.61 164.06, -10.35 176.96, -9.85 179.83" stroke="#d9480f" stroke-width="2" fill="none"></path></g></g><g stroke-linecap="round"><g transform="translate(1189.180847248765 505.47032181538384) rotate(0 6.897348329308329 -88.30237868960813)"><path d="M2.62 -1.41 C4.33 -30.82, 6.82 -146.92, 7.84 -176.19 M0.6 3.99 C3.42 -26.3, 12.22 -150.98, 13.19 -180.6" stroke="#d9480f" stroke-width="2" fill="none"></path></g><g transform="translate(1189.180847248765 505.47032181538384) rotate(0 6.897348329308329 -88.30237868960813)"><path d="M19.86 -154.65 C21.53 -159.3, 18.52 -165.01, 9.61 -179.85 M21.63 -150.77 C20.68 -157.81, 16.48 -166.54, 13.36 -182.34" stroke="#d9480f" stroke-width="2" fill="none"></path></g><g transform="translate(1189.180847248765 505.47032181538384) rotate(0 6.897348329308329 -88.30237868960813)"><path d="M-0.63 -155.79 C5.42 -160.58, 6.79 -166.04, 9.61 -179.85 M1.14 -151.9 C5.79 -158.98, 7.19 -167.41, 13.36 -182.34" stroke="#d9480f" stroke-width="2" fill="none"></path></g></g><g transform="translate(325 141.5) rotate(0 26 18)"><text x="0" y="25" font-family="Virgil, Segoe UI Emoji" font-size="28px" fill="#087f5b" text-anchor="start" style="white-space: pre;" direction="ltr">SSL</text></g><g transform="translate(554 517) rotate(0 94.5 18)"><text x="0" y="25" font-family="Virgil, Segoe UI Emoji" font-size="28px" fill="#087f5b" text-anchor="start" style="white-space: pre;" direction="ltr">127.0.0.1:8081</text></g><g transform="translate(986.5 512.5) rotate(0 96.5 18)"><text x="0" y="25" font-family="Virgil, Segoe UI Emoji" font-size="28px" fill="#087f5b" text-anchor="start" style="white-space: pre;" direction="ltr">172.17.0.1:8081</text></g><g stroke-linecap="round" transform="translate(996 88) rotate(0 72 34)"><path d="M124.93 10.05 C133.9 13.13, 139.56 19.47, 142.28 24.98 C145.01 30.48, 144.54 37.4, 141.27 43.08 C138.01 48.76, 131.25 55.26, 122.69 59.04 C114.13 62.83, 101.67 64.81, 89.91 65.8 C78.14 66.8, 63.99 66.47, 52.11 65 C40.22 63.53, 27.16 60.79, 18.6 56.98 C10.04 53.17, 3.46 47.36, 0.75 42.14 C-1.96 36.92, -1.35 31.05, 2.33 25.65 C6 20.25, 14.18 13.72, 22.8 9.75 C31.42 5.78, 42.79 2.99, 54.03 1.82 C65.28 0.65, 75.51 -2.01, 90.27 2.71 C105.03 7.43, 135.37 22.21, 142.61 30.15 C149.84 38.08, 134.46 50.14, 133.69 50.3 M114.92 7.8 C124.13 10.45, 131.09 13.99, 135.89 18.84 C140.68 23.69, 145.08 31.27, 143.71 36.92 C142.35 42.57, 135.05 48.29, 127.71 52.75 C120.36 57.22, 110.12 60.84, 99.65 63.71 C89.18 66.58, 76.79 70.89, 64.88 69.96 C52.96 69.03, 38.11 62.38, 28.16 58.13 C18.2 53.88, 10.17 49.61, 5.12 44.44 C0.08 39.28, -3.5 32.81, -2.11 27.13 C-0.73 21.46, 5.18 14.24, 13.44 10.4 C21.69 6.56, 36.12 5.92, 47.41 4.09 C58.69 2.27, 69.73 -0.75, 81.14 -0.55 C92.56 -0.34, 109.74 4.33, 115.91 5.33 C122.08 6.33, 119.21 4.6, 118.15 5.46" stroke="#1864ab" stroke-width="4" fill="none"></path></g><g transform="translate(1023 109) rotate(0 45.5 13)"><text x="45.5" y="18" font-family="Virgil, Segoe UI Emoji" font-size="20px" fill="#1864ab" text-anchor="middle" style="white-space: pre;" direction="ltr">172.17.0.3</text></g><g stroke-linecap="round" transform="translate(971 171.5) rotate(0 72 34)"><path d="M37.32 5.41 C47.04 2.45, 62.76 -0.39, 75.05 -0.36 C87.34 -0.32, 100.71 2.28, 111.04 5.64 C121.38 8.99, 131.34 14.63, 137.05 19.77 C142.76 24.91, 146.19 30.81, 145.3 36.48 C144.41 42.14, 138.28 49.33, 131.69 53.78 C125.1 58.23, 116.5 60.9, 105.75 63.18 C94.99 65.46, 79.25 67.63, 67.17 67.46 C55.09 67.3, 42.85 65.34, 33.27 62.2 C23.7 59.05, 15.04 53.33, 9.71 48.6 C4.38 43.87, 0.99 39.49, 1.31 33.83 C1.64 28.16, -2.26 20.03, 11.66 14.62 C25.59 9.21, 66.38 2.24, 84.88 1.35 C103.38 0.46, 123.1 8.79, 122.67 9.26 M125.9 8.87 C134.52 12.02, 141.71 18.1, 144.18 24.59 C146.65 31.07, 144.76 42.26, 140.73 47.77 C136.69 53.28, 128.69 54.63, 119.97 57.65 C111.24 60.66, 100.38 64.53, 88.36 65.85 C76.35 67.17, 59.53 66.85, 47.88 65.56 C36.24 64.26, 26.4 61.86, 18.5 58.07 C10.6 54.28, 3.05 48.39, 0.49 42.83 C-2.07 37.27, -1.19 30.36, 3.15 24.73 C7.49 19.11, 17.62 12.81, 26.52 9.1 C35.42 5.38, 44.72 3.7, 56.56 2.43 C68.4 1.16, 85.74 -0.23, 97.55 1.48 C109.36 3.19, 122.69 10.43, 127.42 12.69 C132.16 14.96, 126.87 14.75, 125.96 15.05" stroke="#1864ab" stroke-width="4" fill="none"></path></g><g transform="translate(1000.5 193.5) rotate(0 45.5 13)"><text x="45.5" y="18" font-family="Virgil, Segoe UI Emoji" font-size="20px" fill="#1864ab" text-anchor="middle" style="white-space: pre;" direction="ltr">172.17.0.4</text></g><g stroke-linecap="round" transform="translate(1003 264.5) rotate(0 46.5 30)"><path d="M54.87 2.37 C63 2.98, 73.82 5.28, 80.07 9.45 C86.31 13.63, 91.04 21.58, 92.35 27.42 C93.66 33.25, 92.15 39.54, 87.92 44.46 C83.68 49.37, 75.25 54.23, 66.92 56.91 C58.6 59.59, 47.07 61.87, 37.98 60.54 C28.9 59.22, 18.5 53.29, 12.41 48.96 C6.32 44.63, 2.52 40.09, 1.45 34.55 C0.39 29.02, 1.53 20.97, 6 15.73 C10.48 10.48, 19.01 5.37, 28.3 3.08 C37.59 0.78, 55.92 2.31, 61.76 1.96 C67.61 1.61, 63.77 0.59, 63.39 0.97 M10.9 6 C17.2 1.75, 31.87 -2.23, 41.18 -2.57 C50.49 -2.91, 58.82 0.67, 66.77 3.96 C74.71 7.25, 85.02 12.24, 88.85 17.16 C92.68 22.08, 91.42 27.64, 89.75 33.47 C88.07 39.3, 85.1 47.38, 78.81 52.14 C72.52 56.9, 60.66 61.04, 52.01 62.02 C43.36 63, 34.93 60.96, 26.91 58 C18.9 55.04, 8.56 49.94, 3.91 44.28 C-0.73 38.62, -2.3 29.5, -0.97 24.04 C0.35 18.58, 9.54 13.82, 11.85 11.52 C14.17 9.22, 12.42 10.12, 12.9 10.24" stroke="#1864ab" stroke-width="4" fill="none"></path></g><g transform="translate(1033.5 267.5) rotate(0 15.5 23)"><text x="15.5" y="32" font-family="Virgil, Segoe UI Emoji" font-size="36px" fill="#1864ab" text-anchor="middle" style="white-space: pre;" direction="ltr">...</text></g><g stroke-linecap="round" transform="translate(544 607.5) rotate(0 415 56.5)"><path d="M0 0 C0 0, 0 0, 0 0 M0 0 C0 0, 0 0, 0 0 M3.27 12.06 C2.55 6.43, 4.23 4.77, 11.71 1.89 M-0.03 10.79 C3.3 10.48, 4.11 6.33, 11.44 -0.88 M-3.44 24.85 C6.94 15.49, 11.45 9.94, 24.12 -1.85 M1.92 22.81 C8.91 18.36, 15.98 10.35, 20.73 1.87 M-0.85 37.81 C15.34 21.43, 21.56 8.79, 31.73 0.31 M-2.11 37.23 C7.79 25.76, 17.98 17.12, 30.82 -1.13 M-0.46 50.41 C19.48 30.44, 31.54 11.54, 39.23 3.17 M0.05 50.32 C15.67 34.27, 27.49 15.4, 41.35 -1.24 M-1.48 61.65 C23.59 37.96, 41.02 15.36, 49.86 2.56 M-1.85 60.23 C16.53 44.3, 30.53 25.44, 53.42 1.56 M-1.6 69.3 C14.83 49.72, 35.83 29.9, 67.45 -1.87 M-0.73 72.49 C22.64 47.49, 48.8 21.69, 62.9 -0.67 M4.09 88.94 C23.26 54.55, 49.05 26.89, 74.15 3.54 M0.23 85.71 C25.24 56.85, 45.55 32.34, 73.53 1.06 M0.13 100.95 C31.6 66.05, 56.81 38.32, 88.23 0.78 M0.1 97.14 C31 58.58, 63.48 22.64, 86.09 1.51 M3.17 113.71 C36.15 69.79, 65.45 35.36, 93.77 -1.67 M-0.06 108.6 C22.69 78.92, 44.55 53.18, 95.5 -1.87 M8.28 117.14 C29.38 89.9, 53.65 59.93, 106.43 1.5 M4.56 118.51 C45.35 72.34, 84 27.76, 107.95 -0.1 M17.51 114.97 C51.77 79.62, 82.55 44.68, 118.57 -0.63 M14.45 116.89 C42.07 81.74, 69.9 52.41, 117.38 0.98 M29.02 116.24 C58.88 72.55, 98.8 36.97, 127.59 4.06 M26.24 115.45 C46.3 92.68, 66.22 67.87, 125.19 -1.44 M35.98 114.52 C60.91 83.73, 91.4 46.53, 133.78 1.47 M35.02 117.44 C71.4 76.99, 107.02 39.61, 137.47 2.24 M46.37 112.92 C66.89 91.04, 87.72 64.84, 144.63 -1.44 M45.5 117.24 C77.82 78.12, 106.09 45.64, 148.75 -0.05 M60.11 119.06 C95.88 70.67, 130.61 29.85, 160.02 2.31 M56.5 118.04 C83.51 86.69, 108.85 54.87, 158.44 -0.51 M65.44 120.37 C86.58 93.98, 107.44 65.81, 165.86 -1.99 M68.73 117.7 C109 70.54, 148.5 26.45, 167.96 1.5 M76.69 114.82 C102.89 87.31, 129.21 57.15, 183.94 -0.53 M77.92 118.1 C104.91 83.53, 134.07 50.57, 181.9 0.25 M90.71 118.15 C118.04 82.82, 152.83 47.86, 193.62 3.29 M90.63 119.08 C127.22 70.32, 167.66 25.17, 189.11 0.57 M95.9 118.93 C121 90.97, 146.38 61.06, 197.58 -0.88 M100.66 115.99 C127.95 84.45, 156.76 51.28, 199.81 -1.29 M114.04 120.71 C141.5 80.88, 168.53 50.02, 215.61 3.9 M110.23 116.6 C142.16 83.87, 168.4 48.24, 210.77 -0.79 M121.96 120.39 C142.13 87.29, 164.7 59.42, 222.34 0.1 M119.06 117.98 C160.19 74.44, 191.79 32.45, 222.4 -0.23 M133.34 118.37 C169.21 68.5, 209.31 23.87, 236.95 1.97 M129.53 115.39 C154.89 89.28, 182.38 60.26, 231.87 0.15 M144.45 120.84 C170.82 92.68, 195.15 63.3, 244.99 1.83 M143.78 115.08 C168.96 89.36, 194.63 57.18, 242.25 -0.99 M151.89 118.05 C178.61 92.84, 199.68 68.21, 256.09 -3.75 M152.85 115.28 C190.43 72.17, 228.59 31.08, 255.62 -1.19 M162.34 118.52 C201.6 70.34, 238.46 29.03, 265.7 -3.62 M161.79 114.95 C201.71 70.58, 239.4 29.88, 266.22 -1.32 M170.34 119.32 C193.93 91.78, 213.94 65.12, 272.87 -1.88 M174.8 118.78 C201.07 88.87, 227.91 57.71, 277.56 -0.7 M183.99 116.31 C202.67 88.57, 231.74 62.7, 289.98 0.44 M184.37 117.96 C217 81.43, 247.45 44.45, 287.52 -0.25 M194.73 114.38 C221.93 89.99, 245.42 55.83, 296.51 -0.42 M196.34 115.1 C226.39 81.56, 257.17 47.08, 297.52 -1.59 M203.09 113.71 C248.27 72.79, 283.29 32.45, 304.76 -0.67 M207.11 117.13 C240.84 78.68, 278.1 40.08, 305.63 -2.16 M220.45 120.04 C255.18 73.17, 291.25 29.39, 321.61 -2.75 M216.7 116.13 C249.21 75.17, 287.14 37.38, 319.67 1.63 M230.75 114.86 C249.2 87.39, 279.68 52.19, 326.29 2.98 M225.92 118.22 C261.65 82.06, 293.88 43.62, 330.37 -0.7 M240.29 113.73 C268.4 82.29, 303.6 47.06, 336.13 0.4 M237.46 116.44 C264.36 85.98, 291.86 55.82, 340.47 -0.87 M247.43 120.49 C271.55 90.55, 295.73 58.71, 351.59 -1.29 M249.03 115.63 C284.41 72.11, 323.51 29.63, 349.21 1.88 M260.4 113.53 C289.94 76.87, 330.62 36.92, 360.75 -0.36 M258.49 117.3 C297.28 72.32, 336.14 27.39, 360.06 -1.47 M266.98 120 C293.45 96.55, 313.51 65, 369 4.21 M268.96 116.49 C294.01 87.27, 321.21 58.43, 369.91 -0.22 M284.31 114.11 C320.92 75.11, 358.84 25.93, 379.5 3.97 M281.97 114.66 C301.59 92.67, 319.77 67.55, 380.83 1.85 M287.95 116.13 C329.76 76.3, 371.58 24.21, 394.26 0.04 M289.91 117.33 C329.36 77.37, 364.94 34.39, 392.55 0.14 M304.27 119.56 C337.03 72.59, 378.59 21, 399.83 -2.72 M299.76 115.92 C338.6 74.63, 374.62 31.26, 403.55 2.09 M312.25 114 C336.99 83.09, 368.31 48.15, 417.15 -1.36 M310.34 117.14 C341.69 83.5, 373.13 48.78, 412.2 0.05 M319.86 116.3 C352.07 80.01, 391.26 39.06, 423.2 -0.68 M323.98 116.89 C343.68 91.54, 368.13 65.04, 421.92 0.17 M333.18 117.62 C367.48 81.35, 395.39 40.2, 432.82 -2.93 M331.06 117.84 C365.51 82.55, 398.38 43.94, 434.24 -0.74 M342.1 117.65 C379.16 78.48, 408.31 45.28, 444.44 2.45 M343.09 118.34 C369.81 85.67, 398.99 53.37, 445.99 1.69 M354.1 118.87 C380.72 87.07, 409.99 55.56, 457.81 1.04 M353.86 117.28 C391.6 77.36, 422.25 41.13, 454.36 0.24 M364 120.8 C402.36 80.51, 437.09 38.12, 467.78 3.7 M364.54 118.97 C403.45 76.93, 437.54 34.3, 466.09 0.96 M371.71 114.24 C414.88 68.32, 456.35 21.13, 474.02 0.84 M376.83 118.01 C399.14 86.92, 424.15 59.74, 478.55 0.11 M383.98 115.56 C409.53 90.42, 434.07 57.43, 490.81 -3.33 M386.08 116.18 C406.28 88.51, 428.66 62.92, 488.88 0.95 M400.12 112.87 C423.42 85.59, 444.4 56.31, 500.73 3.42 M398.39 115.28 C423.48 86.68, 445.55 62.22, 499.13 -1.3 M405.8 116.37 C424.01 90.35, 453.4 68.2, 512.49 3.63 M407.77 118.04 C450 74.12, 487.96 24.87, 509.34 1.34 M414.78 120.51 C459.18 72.49, 496.59 26.55, 522.6 0.35 M417.25 116.99 C442.68 83.64, 471.74 51.9, 518.72 -1.47 M430.63 114.3 C458.34 82.2, 483.71 48.82, 533.17 3.45 M427.99 115.31 C458.53 79.69, 488.86 48.7, 530.74 -1.52 M440.53 115.54 C476.62 82.55, 511.04 40.61, 537.64 -0.19 M440.43 115.75 C477.96 72.63, 516.69 25.97, 542.27 0.81 M448.99 117.04 C481.54 79.9, 511.36 47.24, 554.56 3.63 M451.42 117.45 C477.43 86.26, 507.47 50.76, 552.69 1.43 M463.6 112.94 C486.21 81.06, 514.31 54.74, 565.28 2.62 M459.3 116.87 C487.64 87.23, 512.28 53.13, 561.02 1.42 M472.8 116.9 C509.11 82.31, 539.11 43.12, 571.75 0.3 M469.07 116.6 C499.52 84.96, 529.81 49.96, 571.08 -0.09 M479.58 116.37 C505.93 83.84, 535.72 57.78, 581.62 2.97 M481.49 118.32 C518.21 71.8, 557.18 29.51, 583.89 -0.31 M495.32 114.82 C514.21 84.4, 536.5 61.98, 596.56 2.97 M494.24 115.59 C523.02 79.72, 554.74 40.54, 593.48 1.1 M501.43 118.05 C525.91 92.26, 548.72 61.35, 602.14 1.42 M503 114.78 C532.42 86.71, 558.91 57.29, 604.06 -0.62 M515.21 120.37 C541.97 78.46, 575.67 41.57, 612.14 -0.5 M514.58 115.92 C553.35 69.34, 592.25 28.56, 613.74 -1.41 M526.84 115.64 C547.24 87.73, 577.02 56.08, 621.71 1.41 M523.43 118.35 C554.07 84.32, 580.12 47.93, 627.05 1.2 M535.84 120.49 C561.84 88.21, 589.59 55.55, 633.05 0.65 M535.35 118.56 C570.97 77.42, 606.42 34.94, 636.04 0.95 M540.84 117.11 C587.07 75.8, 623.61 30.89, 649.23 -1.75 M544.7 115.59 C574.27 88.99, 599.18 57.16, 645.39 -0.22 M551.94 116.48 C584.2 89.46, 605.8 61.73, 659.89 -2.95 M554.13 116.89 C583.24 82.25, 615.24 50.26, 657.54 0.65 M567.86 113.35 C584.97 93.33, 613.4 66.76, 666.99 3.9 M567.06 115.96 C607.71 72.01, 644.69 26.26, 665.87 0.45 M577.63 120.54 C614.22 76.2, 644.88 37.56, 678.61 -0.05 M576.81 117.23 C615.3 75.85, 650.95 32.23, 679.72 -1.14 M586.37 115.12 C610.08 89.35, 637.5 61.3, 686.64 -1.1 M587.72 116.9 C622.37 78.35, 658.82 34.59, 689.62 -0.77 M601.05 120.73 C634.4 76.97, 669.46 28.18, 700.56 1.22 M596.28 115.86 C628.62 84.15, 656.51 53.23, 700.35 1.45 M608.22 113.79 C628.83 89.1, 650.71 72.38, 709.2 -3.55 M608.23 116.52 C633.32 86, 661.02 53.69, 712.08 -1.18 M615.74 113.75 C642.35 85.55, 667.19 54.79, 722.46 -2.62 M619.72 115.72 C650.29 82.58, 680.84 46.62, 721.52 -1.05 M630.61 113.35 C665.65 77.84, 698.26 37.59, 733.08 2.36 M630.42 117.6 C656.09 85.15, 684.68 57.3, 731.01 0.61 M636.61 112.9 C677.91 73.36, 722.22 31.59, 742.4 -2.47 M640.63 118.45 C682.36 69.77, 722.81 26.02, 741.65 -1.39 M652.14 114.45 C666.27 93.27, 689.12 71.01, 754.07 -0.92 M652.45 115.63 C679.64 81.18, 709.77 47.73, 754.46 0.67 M659.93 116.13 C699 69.8, 737.04 26.53, 759.84 -0.55 M662.84 116.39 C689.11 83.24, 714.5 53.05, 763.46 0.33 M672.78 114.33 C701.83 78.24, 738.72 40.75, 773.31 1.66 M672.79 114.79 C714.72 71.55, 751.58 25.32, 772.82 -2.22 M679.35 114 C709.12 82.07, 737.93 56.72, 783.63 -2.5 M684.45 116.55 C720.16 74.77, 758.01 31.64, 785.97 0.74 M693.87 114.86 C713.01 91.42, 738.17 62.21, 797.33 1.8 M694.23 115.93 C732.82 73.02, 771.27 27.12, 794.76 1.38 M701.91 113.7 C731.51 90.45, 748.91 59.14, 807.99 -1.31 M705.92 116.62 C731 85.3, 759.3 50.17, 804.54 1.13 M718.13 114.56 C743.39 80.21, 773.99 44.04, 813.39 0.57 M715.86 116.59 C746.02 75.26, 780.21 37.88, 814.64 0.36 M724.01 115.04 C765.75 71.43, 803.28 32.83, 827.85 -0.61 M726 117 C761.57 78.09, 793.25 39.67, 826.16 0.22 M733.64 116.54 C775.12 77.47, 809.67 41.39, 837.44 0.41 M737.08 115.02 C775.14 76.27, 807.7 37.07, 836.46 3.07 M747.43 118.47 C780.05 81.14, 808.05 45.91, 835.71 14.2 M745.74 116.77 C778.08 79.86, 807.4 43.95, 834.33 15.05 M753.22 113.32 C780.53 88.79, 802.41 61.57, 835.09 30.52 M756.96 118.89 C770.9 95.73, 788.04 76.56, 834.79 26.64 M770.67 117.81 C792.91 82.18, 823.29 56.08, 835.81 41.21 M767.86 118.44 C789.02 89.82, 814.29 65.54, 835.25 42.16 M777.03 115.75 C789.46 96.91, 811.22 80.98, 838.05 54.43 M776.85 118.28 C790.69 101, 807.36 84.62, 835.23 52.63 M791.57 113.23 C800.12 100.88, 811.85 94.34, 835.1 65.61 M787.37 116.95 C797.42 103.64, 810.18 94.3, 832.73 65.31 M796.62 117.6 C811.45 104.59, 823.82 84.16, 830.41 76.48 M800.43 118.27 C810.54 105, 822.38 91.88, 832.75 77.44 M811.37 115.8 C814.27 115.28, 820.07 102.86, 834.01 86.29 M811.62 116.21 C817.18 110.73, 821.54 104.56, 835.02 89.99 M821.58 116.5 C824.42 110.9, 827.09 104.33, 836.26 98.59 M820.35 115.82 C824.39 113.56, 826.75 108.31, 835.2 101.14" stroke="#4c6ef5" stroke-width="1" fill="none"></path><path d="M1.37 0.4 C173.85 -3.69, 349.5 -5.78, 829.14 -0.61 M0.52 0.07 C268.19 2.32, 536.31 2.87, 830.17 0.1 M826.29 -0.66 C827.61 30.99, 828.6 62.16, 833.29 109.65 M830.99 -0.89 C829.64 33.18, 827.28 65.1, 828.78 113.19 M830.41 113.36 C558.54 110.46, 284.86 113.01, -0.22 112.2 M829.3 112.89 C590.53 117.46, 353.31 116.25, -0.72 112.53 M2.83 110.95 C-2.21 86.67, -0.17 67.06, -1.16 -1.12 M-0.74 113.73 C-0.57 77.58, 0.84 43.89, -1.23 -1.75" stroke="#364fc7" stroke-width="2" fill="none"></path></g><g transform="translate(848 641.5) rotate(0 57 23)"><text x="57" y="32" font-family="Virgil, Segoe UI Emoji" font-size="36px" fill="#a61e4d" text-anchor="middle" style="white-space: pre;" direction="ltr">MySQL</text></g><g transform="translate(1079.5 645.5) rotate(0 127.5 23)"><text x="127.5" y="32" font-family="Virgil, Segoe UI Emoji" font-size="36px" fill="#a61e4d" text-anchor="middle" style="white-space: pre;" direction="ltr">172.17.0.1:3306</text></g><g stroke-linecap="round" transform="translate(1202 514.5) rotate(0 62 31.5)"><path d="M0 0 C0 0, 0 0, 0 0 M0 0 C0 0, 0 0, 0 0 M2.56 11.62 C0.78 7.52, 5.91 6.48, 8.51 -3.04 M-0.55 10.86 C4.21 8.54, 6.44 5.39, 12.05 -0.09 M3.67 23.32 C5.42 13.21, 18.8 2.55, 21.74 -3.6 M2.05 22.45 C6.41 18.91, 9.36 10.66, 21.95 0.52 M-2 39.89 C10.14 27.75, 14.08 13.65, 31.83 1.12 M-1.6 36.27 C12.15 24.01, 21.61 9.51, 29.92 -0.46 M-3.24 46.62 C15.13 33.99, 23.17 20.39, 39.18 -3.7 M-1 49.91 C9.91 37.37, 18.52 24.69, 43.3 -1.6 M2.15 59.29 C17.79 37.78, 38.87 17.36, 50.47 3.71 M-0.28 60.52 C16.2 42.08, 29.26 25.35, 52.13 1.68 M1.41 69.43 C23.64 45.14, 40.38 28.15, 64.46 2.72 M5.7 69.35 C27.95 41.72, 47.3 17.52, 62.34 -1.79 M16.51 63.96 C37.09 44.25, 56.31 23.78, 74.17 -3.98 M15.74 68.72 C30.92 48.7, 47.89 31.1, 72.7 -1.75 M22.53 71.43 C43.36 53.7, 49.83 35.12, 85.15 3.39 M27.22 67.62 C49.16 42.85, 74.12 13.45, 83.59 -1.45 M34.96 68.68 C55.99 47.72, 65.5 28.24, 93.78 -0.55 M38.06 65.79 C54.76 50.01, 71.2 25.73, 93.99 -0.48 M50.1 69.4 C64.4 46.72, 78.33 27.85, 105.44 3.4 M45.76 65.59 C66.99 42.16, 89.1 20.63, 106.26 -1.68 M55.27 69.85 C80.4 49.44, 98.3 27.53, 120.16 1.53 M56.21 69.18 C76.88 44.44, 99.49 20.94, 114.4 -1.21 M71.11 66.62 C85.19 54.65, 100.68 37.45, 128.17 3.47 M68.62 67.58 C77.86 54.48, 89.93 41.43, 126.25 3.01 M81.77 66.41 C91.36 53.27, 99.75 38.91, 126.94 14.49 M80.34 65.86 C86.33 57.23, 96.66 45.65, 127.16 15.02 M93.2 63.75 C101.62 56, 109.38 44.41, 125.72 23.07 M87.79 68.21 C101.25 57.7, 109.78 46.77, 127.1 27.76 M103.4 66.73 C107.24 54.99, 115.69 51.96, 128.84 41.6 M99.27 67.11 C109.53 58.57, 117 47.5, 126.65 39.13 M112.62 66.8 C113.31 64.27, 122.79 57.76, 123.19 49.54 M111.93 68.41 C113.82 62.43, 120.5 57.78, 127.08 50.55" stroke="#40c057" stroke-width="1" fill="none"></path><path d="M0.75 0.38 C48.39 6.31, 89.03 5.48, 124.71 3.19 M-0.18 0.35 C39.78 -2.65, 80.09 -3.68, 125.76 1.05 M124.01 3.28 C128.24 27.62, 120.91 49.64, 122.67 61.1 M125.88 0.05 C122.08 17.41, 121.72 32.12, 124.11 62.83 M127.53 66.66 C96.96 64.23, 69.67 66.16, -3.5 63.13 M124.33 62.95 C82.94 64.32, 38.94 64.07, 0.98 64.65 M-1.31 65.26 C-1.79 47.25, -1.54 26.83, -0.07 2.29 M1.79 62.2 C0.62 44.51, -0.91 27.36, 1.24 1.1" stroke="#2b8a3e" stroke-width="2" fill="none"></path></g><g transform="translate(1208.5 525.5) rotate(0 56.5 20)"><text x="56.5" y="30" font-family="Virgil, Segoe UI Emoji" font-size="28px" fill="#495057" text-anchor="middle" style="white-space: pre;" direction="ltr">其他服务</text></g><g stroke-linecap="round"><g transform="translate(1340 326.5) rotate(0 -0.08475862249724742 139.06350775510066)"><path d="M-2.11 -1.94 C-1.84 45.14, 1.31 232.8, 1.54 280.07 M1.94 3.18 C1.83 49.61, -1.26 229.88, -0.78 275.61" stroke="#d9480f" stroke-width="2" fill="none"></path></g><g transform="translate(1340 326.5) rotate(0 -0.08475862249724742 139.06350775510066)"><path d="M-13.67 247.15 C-6.92 252.45, -1.59 267.98, 1.36 272.14 M-8.98 247.02 C-9.9 256.34, -5.23 262.6, 0.21 276.75" stroke="#d9480f" stroke-width="2" fill="none"></path></g><g transform="translate(1340 326.5) rotate(0 -0.08475862249724742 139.06350775510066)"><path d="M6.85 247.26 C7.51 252.22, 6.73 267.72, 1.36 272.14 M11.54 247.13 C4.86 256.79, 3.77 263.02, 0.21 276.75" stroke="#d9480f" stroke-width="2" fill="none"></path></g></g><g stroke-linecap="round"><g transform="translate(1263 327.5) rotate(0 1.4189743056521138 92.97397110126917)"><path d="M2.25 -2.06 C3.09 29.72, 2.72 156.95, 2.74 188.01 M0.03 2.99 C0.88 34.24, 1.34 153.5, 1.57 184.08" stroke="#000000" stroke-width="2" fill="none"></path></g><g transform="translate(1263 327.5) rotate(0 1.4189743056521138 92.97397110126917)"><path d="M-11.8 158.75 C-4.25 164.21, -7.25 164.63, 2.24 187.51 M-8.06 154.44 C-6.41 160.44, -5.05 167.04, 2.8 182.09" stroke="#000000" stroke-width="2" fill="none"></path></g><g transform="translate(1263 327.5) rotate(0 1.4189743056521138 92.97397110126917)"><path d="M8.72 158.63 C11.77 164.44, 4.28 164.89, 2.24 187.51 M12.46 154.32 C9.85 160.2, 6.95 166.83, 2.8 182.09" stroke="#000000" stroke-width="2" fill="none"></path></g></g><g stroke-linecap="round"><g transform="translate(1248 413.5) rotate(0 15.349984917789698 20.731544617563486)"><path d="M-2.68 2.28 C2.67 9, 26.98 31.06, 33.38 37.57 M1.07 1.05 C5.96 8.38, 25.62 34.41, 31.34 40.42" stroke="#c92a2a" stroke-width="2" fill="none"></path></g></g><g stroke-linecap="round"><g transform="translate(1243 459.5) rotate(0 21.942102909237065 -27.79520379528401)"><path d="M-1.38 1.73 C5.22 -7.41, 32.59 -47.87, 39.97 -57.32 M3.06 0.2 C10.51 -8.44, 38.86 -46.28, 45.27 -54.95" stroke="#c92a2a" stroke-width="2" fill="none"></path></g></g><g stroke-linecap="round"><g transform="translate(1330 459.42386631483123) rotate(0 17.23019453282825 -33.92152712152148)"><path d="M-0.51 -22.25 C2.16 -19.56, 6.86 -0.68, 13.39 -7.28 C19.93 -13.87, 34.75 -52.91, 38.69 -61.82 M-4.23 -23.48 C-0.49 -21.68, 11.58 -5.22, 18.4 -11.26 C25.23 -17.29, 33.68 -51.82, 36.72 -59.7" stroke="#087f5b" stroke-width="4" fill="none"></path></g></g><g stroke-linecap="round"><g transform="translate(1171.49921529953 446.54585878509056) rotate(0 19.54484773393142 -10.95532678700647)"><path d="M2.29 -0.48 C4.92 1.57, 11.93 19.1, 18.05 13.49 C24.17 7.87, 35.56 -26.21, 39.01 -34.15 M0.08 -3.21 C2.33 -0.95, 10.77 22.06, 16.96 16.1 C23.14 10.14, 33.5 -29.7, 37.2 -38.98" stroke="#087f5b" stroke-width="4" fill="none"></path></g></g><g transform="translate(390 313.5) rotate(31.504266719204175 78 13)"><text x="78" y="18" font-family="Virgil, Segoe UI Emoji" font-size="20px" fill="#d9480f" text-anchor="middle" style="white-space: pre;" direction="ltr">(Reverse Proxy)</text></g><g stroke-linecap="round" transform="translate(142 462.5) rotate(0 97.5 48)"><path d="M-0.01 49.01 C-0.01 49.01, -0.01 49.01, -0.01 49.01 M-0.01 49.01 C-0.01 49.01, -0.01 49.01, -0.01 49.01 M18.44 56.31 C19.83 50.79, 27.8 41.04, 40.28 30.54 M16.4 56.97 C20.45 49.61, 27.27 42.31, 36.69 31.03 M28.29 65.43 C44.63 50.81, 56.63 29.51, 77.75 11.76 M28.76 65.19 C38.3 52.18, 50.48 39.43, 76.59 10.06 M42.96 74.18 C59.94 43.91, 84.54 24.95, 101.99 2.58 M45.17 69.66 C56.86 59.29, 70.51 45.26, 100.64 4.39 M59.33 73.58 C76.26 63.57, 91.39 37.73, 116.1 15.66 M59.36 79.06 C78.37 57.23, 99.89 33.11, 116.12 12.98 M74.22 83.48 C94.92 59.68, 117.29 37.48, 131.97 21.08 M76.24 86.11 C93.27 65.96, 110.24 44.17, 132.64 19.08 M90.77 93.47 C107.49 72.2, 128.31 52.72, 145.09 27.57 M89.55 91.18 C107.52 74.67, 121.63 54.69, 148.33 26.1 M100.87 100.98 C120.12 90.65, 131.21 69.36, 164.79 30.36 M103.76 98.98 C122.07 79.61, 137.83 58.28, 159.49 36.11 M135.9 84.76 C148.94 73.95, 164.66 55.62, 176.67 44.76 M140.09 82.67 C149.87 72.39, 162.68 59.53, 178.34 41.95 M176.18 61.72 C178.45 59.81, 180.1 57.1, 189.66 47.35 M177.44 63.31 C181.87 57.06, 187.75 52.98, 191.54 47.17" stroke="#40c057" stroke-width="2" fill="none"></path><path d="M95.63 1.98 C124.17 16.3, 147.07 28.09, 194.79 51.34 M99.96 0.12 C118.14 8.28, 144.08 22.23, 194.39 50.46 M197.02 49.91 C176.49 60.67, 150.05 71.69, 100.2 92.78 M193.84 50.49 C166.01 64.33, 140.27 77.99, 99.31 94.73 M101.66 96.12 C78.72 82.77, 55.17 71.77, -1.73 45.65 M99.41 96.51 C75.54 82.31, 51.55 72.32, -1.25 47.93 M3.42 49.96 C35.25 33.54, 70.66 12.72, 97.66 -0.11 M-1.87 48.25 C30.55 35.86, 59.92 20.31, 96.34 -0.71" stroke="#d9480f" stroke-width="4" fill="none"></path></g><g transform="translate(172 492.5) rotate(0 67.5 18)"><text x="67.5" y="25" font-family="Virgil, Segoe UI Emoji" font-size="28px" fill="#d9480f" text-anchor="middle" style="white-space: pre;" direction="ltr">Mode</text></g><g stroke-linecap="round"><g transform="translate(325 518.5) rotate(0 30.812959349466553 46.80552039816973)"><path d="M-0.66 0.65 C7.94 3.63, 43.39 3.66, 53.45 18.82 C63.51 33.98, 58.48 79.67, 59.71 91.62 M4.18 -1.46 C13.44 0.55, 49.45 -1.83, 58.47 14.26 C67.49 30.34, 57.63 81.96, 58.29 95.07" stroke="#d9480f" stroke-width="4" fill="none"></path></g><g transform="translate(325 518.5) rotate(0 30.812959349466553 46.80552039816973)"><path d="M51.01 62.58 C54.46 77.88, 57.2 90.09, 57.69 95.72 M51.11 65.14 C51.35 71.99, 53.97 81.82, 58.36 96.64" stroke="#d9480f" stroke-width="4" fill="none"></path></g><g transform="translate(325 518.5) rotate(0 30.812959349466553 46.80552039816973)"><path d="M71.48 64.05 C67.39 78.72, 62.6 90.39, 57.69 95.72 M71.58 66.62 C66.85 73.09, 64.51 82.56, 58.36 96.64" stroke="#d9480f" stroke-width="4" fill="none"></path></g></g><g transform="translate(316 545) rotate(0 29 18)"><text x="29" y="25" font-family="Virgil, Segoe UI Emoji" font-size="28px" fill="#000000" text-anchor="middle" style="white-space: pre;" direction="ltr">prod</text></g><g transform="translate(48.5 487) rotate(0 23.5 18)"><text x="23.5" y="25" font-family="Virgil, Segoe UI Emoji" font-size="28px" fill="#000000" text-anchor="middle" style="white-space: pre;" direction="ltr">dev</text></g><g stroke-linecap="round" transform="translate(10 568.5) rotate(0 100 72.5)"><path d="M89.66 -1.5 C102.48 -3.63, 119.33 0.35, 131.78 3.65 C144.24 6.96, 154.67 12.13, 164.39 18.34 C174.1 24.54, 184.21 31.76, 190.07 40.89 C195.93 50.02, 199.06 62.87, 199.54 73.12 C200.02 83.37, 198.07 93.26, 192.94 102.38 C187.81 111.5, 178.88 121.11, 168.76 127.85 C158.64 134.58, 145.15 139.98, 132.22 142.77 C119.28 145.56, 104.59 145.59, 91.15 144.58 C77.7 143.57, 63.25 141.79, 51.57 136.71 C39.88 131.63, 28.95 122.17, 21.06 114.1 C13.17 106.02, 7.34 97.93, 4.21 88.27 C1.09 78.6, 0.11 66.08, 2.32 56.11 C4.54 46.14, 9.67 36.05, 17.49 28.45 C25.31 20.85, 30.31 14.27, 49.24 10.5 C68.17 6.73, 111.14 3.88, 131.07 5.81 C151 7.75, 169.05 21.63, 168.81 22.11 M139.61 5.81 C152.65 8.56, 167.24 14.66, 176.48 21.77 C185.71 28.88, 191.36 39.09, 195.03 48.45 C198.7 57.81, 200.05 68.42, 198.52 77.94 C196.98 87.46, 192.3 96.6, 185.83 105.55 C179.37 114.5, 170.28 124.99, 159.72 131.64 C149.16 138.29, 136.23 143.28, 122.47 145.44 C108.7 147.61, 90.79 147.1, 77.12 144.64 C63.45 142.19, 51.01 136.51, 40.45 130.7 C29.88 124.89, 20.19 118, 13.73 109.79 C7.27 101.57, 3.69 91.26, 1.7 81.39 C-0.3 71.51, -1.9 60.45, 1.75 50.54 C5.41 40.64, 14.66 29.37, 23.64 21.95 C32.62 14.53, 43.37 9.51, 55.62 6 C67.87 2.5, 83.43 1.06, 97.16 0.93 C110.88 0.8, 131.05 4.02, 137.97 5.22 C144.9 6.42, 138.96 7.17, 138.7 8.14" stroke="#000000" stroke-width="4" fill="none"></path></g><g transform="translate(51.5 588) rotate(0 55.5 35.5)"><text x="55.5" y="25.5" font-family="Virgil, Segoe UI Emoji" font-size="28px" fill="#000000" text-anchor="middle" style="white-space: pre;" direction="ltr">Next.js </text><text x="55.5" y="61" font-family="Virgil, Segoe UI Emoji" font-size="28px" fill="#000000" text-anchor="middle" style="white-space: pre;" direction="ltr">server</text></g><g transform="translate(39.5 667) rotate(0 70.5 13)"><text x="70.5" y="18" font-family="Virgil, Segoe UI Emoji" font-size="20px" fill="#000000" text-anchor="middle" style="white-space: pre;" direction="ltr">127.0.0.1:3000</text></g><g transform="translate(286 657.5) rotate(0 92 18)"><text x="92" y="25" font-family="Virgil, Segoe UI Emoji" font-size="28px" fill="#000000" text-anchor="middle" style="white-space: pre;" direction="ltr">(Static Files)</text></g><g stroke-linecap="round"><g transform="translate(145 503.5) rotate(0 -32.482801435589806 33.65882254257798)"><path d="M-2.63 -0.46 C-11.9 3.78, -44.39 15.09, -54.97 26.43 C-65.54 37.77, -64.19 60.99, -66.1 67.6 M1.14 -3.18 C-8.38 0.23, -45.84 10.46, -56.1 22.74 C-66.36 35.02, -58.57 63.01, -60.41 70.5" stroke="#000000" stroke-width="4" fill="none"></path></g><g transform="translate(145 503.5) rotate(0 -32.482801435589806 33.65882254257798)"><path d="M-69.04 52.6 C-62.19 53.58, -63.64 59.84, -63.15 69.2 M-68.66 48.88 C-63.96 57.33, -62.65 63.1, -61.22 72.03" stroke="#000000" stroke-width="4" fill="none"></path></g><g transform="translate(145 503.5) rotate(0 -32.482801435589806 33.65882254257798)"><path d="M-53.81 52.34 C-51.88 53.12, -58.28 59.46, -63.15 69.2 M-53.42 48.62 C-54.13 57.26, -58.21 63.12, -61.22 72.03" stroke="#000000" stroke-width="4" fill="none"></path></g></g></svg>